BoonThing-400.ufo
<glyph name="exclam" format="1">
  <advance width="330"/>
  <unicode hex="0021"/>
  <outline>
    <contour>
      <point x="136" y="828" type="curve" smooth="yes"/>
      <point x="176" y="835" type="line" smooth="yes"/>
      <point x="179" y="836"/>
      <point x="183" y="836"/>
      <point x="187" y="836" type="curve" smooth="yes"/>
      <point x="202" y="836"/>
      <point x="220" y="830"/>
      <point x="220" y="812" type="curve" smooth="yes"/>
      <point x="220" y="811" type="line" smooth="yes"/>
      <point x="218" y="725"/>
      <point x="222" y="574"/>
      <point x="205" y="303" type="curve" smooth="yes"/>
      <point x="204" y="285"/>
      <point x="176" y="268"/>
      <point x="153" y="268" type="curve" smooth="yes"/>
      <point x="138" y="268"/>
      <point x="126" y="275"/>
      <point x="125" y="295" type="curve" smooth="yes"/>
      <point x="117" y="433"/>
      <point x="111" y="709"/>
      <point x="101" y="794" type="curve" smooth="yes"/>
      <point x="101" y="795"/>
      <point x="101" y="795"/>
      <point x="101" y="796" type="curve" smooth="yes"/>
      <point x="101" y="811"/>
      <point x="118" y="825"/>
    </contour>
    <component base="period"/>
  </outline>
</glyph>
<glyph name="dollar" format="1">
  <advance width="720"/>
  <unicode hex="0024"/>
  <outline>
    <contour>
      <point x="360" y="926" type="curve" smooth="yes"/>
      <point x="362" y="926"/>
      <point x="363" y="926"/>
      <point x="365" y="926" type="curve" smooth="yes"/>
      <point x="383" y="926"/>
      <point x="397" y="917"/>
      <point x="397" y="904" type="curve" smooth="yes"/>
      <point x="397" y="876"/>
      <point x="396" y="848"/>
      <point x="396" y="822" type="curve"/>
      <point x="397" y="822"/>
      <point x="399" y="822"/>
      <point x="400" y="822" type="curve" smooth="yes"/>
      <point x="539" y="822"/>
      <point x="614" y="737"/>
      <point x="614" y="648" type="curve" smooth="yes"/>
      <point x="614" y="640"/>
      <point x="613" y="633"/>
      <point x="612" y="625" type="curve" smooth="yes"/>
      <point x="609" y="604"/>
      <point x="581" y="585"/>
      <point x="552" y="584" type="curve" smooth="yes"/>
      <point x="551" y="584"/>
      <point x="551" y="584"/>
      <point x="550" y="584" type="curve" smooth="yes"/>
      <point x="524" y="584"/>
      <point x="504" y="598"/>
      <point x="504" y="617" type="curve" smooth="yes"/>
      <point x="504" y="618"/>
      <point x="504" y="620"/>
      <point x="504" y="621" type="curve" smooth="yes"/>
      <point x="505" y="626"/>
      <point x="505" y="631"/>
      <point x="505" y="636" type="curve" smooth="yes"/>
      <point x="505" y="692"/>
      <point x="458" y="739"/>
      <point x="395" y="744" type="curve"/>
      <point x="394" y="637"/>
      <point x="392" y="541"/>
      <point x="392" y="448" type="curve"/>
      <point x="439" y="432"/>
      <point x="486" y="415"/>
      <point x="506" y="408" type="curve" smooth="yes"/>
      <point x="622" y="371"/>
      <point x="674" y="294"/>
      <point x="674" y="216" type="curve" smooth="yes"/>
      <point x="674" y="174"/>
      <point x="658" y="131"/>
      <point x="630" y="94" type="curve" smooth="yes"/>
      <point x="584" y="35"/>
      <point x="503" y="-13"/>
      <point x="400" y="-21" type="curve"/>
      <point x="401" y="-45"/>
      <point x="401" y="-70"/>
      <point x="402" y="-95" type="curve" smooth="yes"/>
      <point x="402" y="-96" type="line" smooth="yes"/>
      <point x="402" y="-110"/>
      <point x="385" y="-123"/>
      <point x="366" y="-126" type="curve" smooth="yes"/>
      <point x="364" y="-126"/>
      <point x="361" y="-127"/>
      <point x="359" y="-127" type="curve" smooth="yes"/>
      <point x="342" y="-127"/>
      <point x="329" y="-117"/>
      <point x="328" y="-105" type="curve" smooth="yes"/>
      <point x="327" y="-76"/>
      <point x="326" y="-47"/>
      <point x="325" y="-20" type="curve"/>
      <point x="197" y="-8"/>
      <point x="115" y="60"/>
      <point x="80" y="147" type="curve" smooth="yes"/>
      <point x="79" y="150"/>
      <point x="78" y="154"/>
      <point x="78" y="157" type="curve" smooth="yes"/>
      <point x="78" y="174"/>
      <point x="94" y="192"/>
      <point x="118" y="199" type="curve" smooth="yes"/>
      <point x="126" y="201"/>
      <point x="134" y="202"/>
      <point x="141" y="202" type="curve" smooth="yes"/>
      <point x="161" y="202"/>
      <point x="178" y="194"/>
      <point x="184" y="179" type="curve" smooth="yes"/>
      <point x="208" y="119"/>
      <point x="256" y="78"/>
      <point x="323" y="63" type="curve"/>
      <point x="320" y="176"/>
      <point x="318" y="276"/>
      <point x="318" y="375" type="curve"/>
      <point x="284" y="387"/>
      <point x="253" y="398"/>
      <point x="236" y="404" type="curve" smooth="yes"/>
      <point x="123" y="442"/>
      <point x="70" y="515"/>
      <point x="70" y="590" type="curve" smooth="yes"/>
      <point x="70" y="601"/>
      <point x="71" y="611"/>
      <point x="73" y="622" type="curve" smooth="yes"/>
      <point x="91" y="709"/>
      <point x="184" y="793"/>
      <point x="322" y="816" type="curve"/>
      <point x="322" y="842"/>
      <point x="323" y="868"/>
      <point x="323" y="896" type="curve" smooth="yes"/>
      <point x="323" y="910"/>
      <point x="340" y="924"/>
    </contour>
    <contour>
      <point x="319" y="474" type="curve"/>
      <point x="319" y="558"/>
      <point x="320" y="643"/>
      <point x="321" y="738" type="curve"/>
      <point x="239" y="722"/>
      <point x="192" y="674"/>
      <point x="181" y="622" type="curve" smooth="yes"/>
      <point x="180" y="615"/>
      <point x="179" y="609"/>
      <point x="179" y="602" type="curve" smooth="yes"/>
      <point x="179" y="555"/>
      <point x="213" y="509"/>
      <point x="294" y="482" type="curve" smooth="yes"/>
      <point x="301" y="480"/>
      <point x="309" y="477"/>
    </contour>
    <contour>
      <point x="393" y="350" type="curve"/>
      <point x="393" y="258"/>
      <point x="394" y="163"/>
      <point x="397" y="56" type="curve"/>
      <point x="462" y="59"/>
      <point x="509" y="86"/>
      <point x="537" y="124" type="curve" smooth="yes"/>
      <point x="555" y="148"/>
      <point x="565" y="176"/>
      <point x="565" y="203" type="curve" smooth="yes"/>
      <point x="565" y="254"/>
      <point x="531" y="305"/>
      <point x="450" y="330" type="curve" smooth="yes"/>
      <point x="438" y="334"/>
      <point x="418" y="341"/>
    </contour>
  </outline>
</glyph>
<glyph name="comma" format="1">
  <advance width="330"/>
  <unicode hex="002C"/>
  <outline>
    <contour>
      <point x="73" y="58" type="curve" smooth="yes"/>
      <point x="68" y="63"/>
      <point x="65" y="69"/>
      <point x="65" y="75" type="curve" smooth="yes"/>
      <point x="65" y="85"/>
      <point x="72" y="95"/>
      <point x="85" y="103" type="curve" smooth="yes"/>
      <point x="89" y="106"/>
      <point x="93" y="109"/>
      <point x="98" y="111" type="curve" smooth="yes"/>
      <point x="117" y="121"/>
      <point x="141" y="127"/>
      <point x="163" y="127" type="curve" smooth="yes"/>
      <point x="165" y="127"/>
      <point x="166" y="127"/>
      <point x="168" y="127" type="curve" smooth="yes"/>
      <point x="201" y="125"/>
      <point x="223" y="110"/>
      <point x="236" y="94" type="curve" smooth="yes"/>
      <point x="252" y="74"/>
      <point x="261" y="46"/>
      <point x="261" y="15" type="curve" smooth="yes"/>
      <point x="261" y="-50"/>
      <point x="222" y="-129"/>
      <point x="126" y="-176" type="curve" smooth="yes"/>
      <point x="118" y="-180"/>
      <point x="108" y="-182"/>
      <point x="99" y="-182" type="curve" smooth="yes"/>
      <point x="85" y="-182"/>
      <point x="73" y="-177"/>
      <point x="66" y="-169" type="curve" smooth="yes"/>
      <point x="63" y="-165"/>
      <point x="61" y="-160"/>
      <point x="61" y="-155" type="curve" smooth="yes"/>
      <point x="61" y="-143"/>
      <point x="69" y="-131"/>
      <point x="84" y="-124" type="curve" smooth="yes"/>
      <point x="144" y="-94"/>
      <point x="170" y="-36"/>
      <point x="170" y="9" type="curve" smooth="yes"/>
      <point x="170" y="28"/>
      <point x="165" y="45"/>
      <point x="157" y="55" type="curve" smooth="yes"/>
      <point x="152" y="61"/>
      <point x="148" y="62"/>
      <point x="148" y="62" type="curve"/>
      <point x="148" y="62"/>
      <point x="144" y="62"/>
      <point x="135" y="57" type="curve" smooth="yes"/>
      <point x="125" y="51"/>
      <point x="113" y="48"/>
      <point x="102" y="48" type="curve" smooth="yes"/>
      <point x="90" y="48"/>
      <point x="80" y="51"/>
    </contour>
  </outline>
</glyph>
<glyph name="zero" format="1">
  <advance width="720"/>
  <unicode hex="0030"/>
  <outline>
    <contour>
      <point x="567" y="685" type="curve"/>
      <point x="629" y="620"/>
      <point x="654" y="516"/>
      <point x="654" y="416" type="curve" smooth="yes"/>
      <point x="654" y="162"/>
      <point x="556" y="-4"/>
      <point x="386" y="-22" type="curve" smooth="yes"/>
      <point x="376" y="-23"/>
      <point x="366" y="-24"/>
      <point x="357" y="-24" type="curve" smooth="yes"/>
      <point x="185" y="-24"/>
      <point x="66" y="145"/>
      <point x="66" y="384" type="curve" smooth="yes"/>
      <point x="66" y="599"/>
      <point x="136" y="737"/>
      <point x="257" y="795" type="curve" smooth="yes"/>
      <point x="294" y="813"/>
      <point x="332" y="821"/>
      <point x="368" y="821" type="curve" smooth="yes"/>
      <point x="449" y="821"/>
      <point x="522" y="781"/>
      <point x="568" y="723" type="curve" smooth="yes"/>
      <point x="572" y="718"/>
      <point x="574" y="711"/>
      <point x="574" y="705" type="curve" smooth="yes"/>
      <point x="574" y="698"/>
      <point x="572" y="691"/>
    </contour>
    <contour>
      <point x="464" y="686" type="curve"/>
      <point x="428" y="727"/>
      <point x="389" y="742"/>
      <point x="355" y="742" type="curve" smooth="yes"/>
      <point x="336" y="742"/>
      <point x="319" y="738"/>
      <point x="304" y="730" type="curve" smooth="yes"/>
      <point x="248" y="701"/>
      <point x="174" y="600"/>
      <point x="174" y="396" type="curve" smooth="yes"/>
      <point x="174" y="153"/>
      <point x="308" y="56"/>
      <point x="379" y="56" type="curve" smooth="yes"/>
      <point x="381" y="56"/>
      <point x="384" y="56"/>
      <point x="386" y="56" type="curve" smooth="yes"/>
      <point x="438" y="62"/>
      <point x="546" y="143"/>
      <point x="546" y="404" type="curve" smooth="yes"/>
      <point x="546" y="501"/>
      <point x="514" y="601"/>
      <point x="466" y="642" type="curve" smooth="yes"/>
      <point x="459" y="648"/>
      <point x="456" y="656"/>
      <point x="456" y="664" type="curve" smooth="yes"/>
      <point x="456" y="671"/>
      <point x="458" y="679"/>
    </contour>
  </outline>
</glyph>
<glyph name="four" format="1">
  <advance width="720"/>
  <unicode hex="0034"/>
  <outline>
    <contour>
      <point x="330" y="829" type="curve" smooth="yes"/>
      <point x="333" y="829"/>
      <point x="336" y="829"/>
      <point x="338" y="829" type="curve" smooth="yes"/>
      <point x="364" y="829"/>
      <point x="384" y="815"/>
      <point x="384" y="796" type="curve" smooth="yes"/>
      <point x="383" y="545"/>
      <point x="208" y="340"/>
      <point x="152" y="262" type="curve"/>
      <point x="190" y="256"/>
      <point x="244" y="253"/>
      <point x="307" y="253" type="curve" smooth="yes"/>
      <point x="353" y="253"/>
      <point x="404" y="254"/>
      <point x="456" y="257" type="curve"/>
      <point x="456" y="310"/>
      <point x="455" y="366"/>
      <point x="455" y="420" type="curve" smooth="yes"/>
      <point x="455" y="474"/>
      <point x="456" y="527"/>
      <point x="456" y="575" type="curve" smooth="yes"/>
      <point x="456" y="596"/>
      <point x="480" y="616"/>
      <point x="510" y="619" type="curve" smooth="yes"/>
      <point x="512" y="619"/>
      <point x="515" y="619"/>
      <point x="517" y="619" type="curve" smooth="yes"/>
      <point x="544" y="619"/>
      <point x="564" y="604"/>
      <point x="564" y="585" type="curve" smooth="yes"/>
      <point x="564" y="537"/>
      <point x="563" y="483"/>
      <point x="563" y="428" type="curve" smooth="yes"/>
      <point x="563" y="373"/>
      <point x="564" y="317"/>
      <point x="564" y="263" type="curve"/>
      <point x="589" y="265"/>
      <point x="613" y="267"/>
      <point x="637" y="269" type="curve" smooth="yes"/>
      <point x="639" y="269"/>
      <point x="640" y="269"/>
      <point x="642" y="269" type="curve" smooth="yes"/>
      <point x="669" y="269"/>
      <point x="689" y="254"/>
      <point x="689" y="235" type="curve" smooth="yes"/>
      <point x="689" y="234" type="line" smooth="yes"/>
      <point x="688" y="213"/>
      <point x="663" y="193"/>
      <point x="633" y="191" type="curve" smooth="yes"/>
      <point x="612" y="189"/>
      <point x="589" y="188"/>
      <point x="564" y="186" type="curve"/>
      <point x="565" y="115"/>
      <point x="567" y="54"/>
      <point x="569" y="17" type="curve" smooth="yes"/>
      <point x="569" y="16" type="line" smooth="yes"/>
      <point x="569" y="-5"/>
      <point x="546" y="-25"/>
      <point x="517" y="-29" type="curve" smooth="yes"/>
      <point x="514" y="-29"/>
      <point x="510" y="-30"/>
      <point x="507" y="-30" type="curve" smooth="yes"/>
      <point x="481" y="-30"/>
      <point x="462" y="-16"/>
      <point x="461" y="3" type="curve" smooth="yes"/>
      <point x="459" y="42"/>
      <point x="457" y="105"/>
      <point x="456" y="179" type="curve"/>
      <point x="400" y="176"/>
      <point x="341" y="174"/>
      <point x="286" y="174" type="curve" smooth="yes"/>
      <point x="147" y="174"/>
      <point x="31" y="187"/>
      <point x="31" y="234" type="curve" smooth="yes"/>
      <point x="31" y="314"/>
      <point x="275" y="501"/>
      <point x="276" y="784" type="curve" smooth="yes"/>
      <point x="276" y="805"/>
      <point x="300" y="826"/>
    </contour>
  </outline>
</glyph>
<glyph name="five" format="1">
  <advance width="720"/>
  <unicode hex="0035"/>
  <outline>
    <contour>
      <point x="109" y="154" type="curve" smooth="yes"/>
      <point x="118" y="158"/>
      <point x="128" y="160"/>
      <point x="137" y="160" type="curve" smooth="yes"/>
      <point x="155" y="160"/>
      <point x="172" y="153"/>
      <point x="180" y="141" type="curve" smooth="yes"/>
      <point x="214" y="87"/>
      <point x="297" y="53"/>
      <point x="369" y="53" type="curve" smooth="yes"/>
      <point x="377" y="53"/>
      <point x="384" y="53"/>
      <point x="391" y="54" type="curve" smooth="yes"/>
      <point x="460" y="61"/>
      <point x="541" y="101"/>
      <point x="541" y="244" type="curve" smooth="yes"/>
      <point x="541" y="305"/>
      <point x="524" y="345"/>
      <point x="500" y="370" type="curve" smooth="yes"/>
      <point x="474" y="397"/>
      <point x="436" y="409"/>
      <point x="389" y="409" type="curve" smooth="yes"/>
      <point x="330" y="409"/>
      <point x="259" y="389"/>
      <point x="189" y="350" type="curve" smooth="yes"/>
      <point x="189" y="350"/>
      <point x="160" y="334"/>
      <point x="136" y="334" type="curve" smooth="yes"/>
      <point x="119" y="334"/>
      <point x="106" y="342"/>
      <point x="106" y="368" type="curve" smooth="yes"/>
      <point x="106" y="371"/>
      <point x="106" y="374"/>
      <point x="106" y="377" type="curve" smooth="yes"/>
      <point x="114" y="461"/>
      <point x="128" y="593"/>
      <point x="128" y="696" type="curve" smooth="yes"/>
      <point x="128" y="718"/>
      <point x="127" y="738"/>
      <point x="126" y="757" type="curve" smooth="yes"/>
      <point x="126" y="757"/>
      <point x="125" y="760"/>
      <point x="125" y="764" type="curve" smooth="yes"/>
      <point x="125" y="778"/>
      <point x="132" y="805"/>
      <point x="178" y="805" type="curve" smooth="yes"/>
      <point x="184" y="805"/>
      <point x="190" y="805"/>
      <point x="197" y="804" type="curve" smooth="yes"/>
      <point x="239" y="799"/>
      <point x="301" y="794"/>
      <point x="383" y="794" type="curve" smooth="yes"/>
      <point x="470" y="794"/>
      <point x="526" y="798"/>
      <point x="567" y="804" type="curve" smooth="yes"/>
      <point x="570" y="804"/>
      <point x="574" y="805"/>
      <point x="577" y="805" type="curve" smooth="yes"/>
      <point x="602" y="805"/>
      <point x="622" y="792"/>
      <point x="624" y="773" type="curve" smooth="yes"/>
      <point x="624" y="772"/>
      <point x="624" y="771"/>
      <point x="624" y="770" type="curve" smooth="yes"/>
      <point x="624" y="750"/>
      <point x="602" y="730"/>
      <point x="573" y="726" type="curve" smooth="yes"/>
      <point x="520" y="718"/>
      <point x="458" y="716"/>
      <point x="367" y="716" type="curve" smooth="yes"/>
      <point x="317" y="716"/>
      <point x="274" y="717"/>
      <point x="236" y="719" type="curve"/>
      <point x="236" y="714"/>
      <point x="236" y="709"/>
      <point x="236" y="704" type="curve" smooth="yes"/>
      <point x="236" y="623"/>
      <point x="229" y="529"/>
      <point x="221" y="451" type="curve"/>
      <point x="281" y="474"/>
      <point x="346" y="487"/>
      <point x="407" y="487" type="curve" smooth="yes"/>
      <point x="497" y="487"/>
      <point x="578" y="458"/>
      <point x="620" y="383" type="curve" smooth="yes"/>
      <point x="639" y="349"/>
      <point x="649" y="306"/>
      <point x="649" y="256" type="curve" smooth="yes"/>
      <point x="649" y="90"/>
      <point x="536" y="-9"/>
      <point x="391" y="-24" type="curve" smooth="yes"/>
      <point x="377" y="-25"/>
      <point x="364" y="-26"/>
      <point x="351" y="-26" type="curve" smooth="yes"/>
      <point x="237" y="-26"/>
      <point x="129" y="22"/>
      <point x="80" y="99" type="curve" smooth="yes"/>
      <point x="77" y="103"/>
      <point x="76" y="108"/>
      <point x="76" y="113" type="curve" smooth="yes"/>
      <point x="76" y="128"/>
      <point x="89" y="146"/>
    </contour>
  </outline>
</glyph>
<glyph name="B" format="1">
  <advance width="800"/>
  <unicode hex="0042"/>
  <outline>
    <contour>
      <point x="233" y="353" type="line" smooth="yes"/>
      <point x="232" y="239"/>
      <point x="229" y="126"/>
      <point x="229" y="72" type="curve"/>
      <point x="245" y="64"/>
      <point x="279" y="59"/>
      <point x="322" y="59" type="curve" smooth="yes"/>
      <point x="403" y="59"/>
      <point x="514" y="79"/>
      <point x="577" y="139" type="curve" smooth="yes"/>
      <point x="607" y="168"/>
      <point x="631" y="208"/>
      <point x="636" y="266" type="curve" smooth="yes"/>
      <point x="636" y="271"/>
      <point x="637" y="276"/>
      <point x="637" y="281" type="curve" smooth="yes"/>
      <point x="637" y="369"/>
      <point x="569" y="395"/>
      <point x="482" y="395" type="curve" smooth="yes"/>
      <point x="471" y="395"/>
      <point x="460" y="395"/>
      <point x="449" y="394" type="curve" smooth="yes"/>
      <point x="430" y="393"/>
      <point x="410" y="390"/>
      <point x="391" y="387" type="curve" smooth="yes"/>
      <point x="352" y="373"/>
      <point x="309" y="360"/>
      <point x="266" y="352" type="curve"/>
      <point x="266" y="352"/>
      <point x="246" y="366"/>
      <point x="233" y="383" type="curve"/>
    </contour>
    <contour>
      <point x="233" y="421" type="line" smooth="yes"/>
      <point x="235" y="422"/>
      <point x="237" y="423"/>
      <point x="239" y="424" type="curve" smooth="yes"/>
      <point x="245" y="427"/>
      <point x="251" y="429"/>
      <point x="258" y="431" type="curve" smooth="yes"/>
      <point x="290" y="443"/>
      <point x="327" y="453"/>
      <point x="366" y="461" type="curve"/>
      <point x="393" y="471"/>
      <point x="418" y="481"/>
      <point x="441" y="492" type="curve" smooth="yes"/>
      <point x="503" y="520"/>
      <point x="537" y="572"/>
      <point x="537" y="622" type="curve" smooth="yes"/>
      <point x="537" y="644"/>
      <point x="530" y="666"/>
      <point x="516" y="685" type="curve" smooth="yes"/>
      <point x="494" y="716"/>
      <point x="449" y="742"/>
      <point x="374" y="742" type="curve" smooth="yes"/>
      <point x="309" y="742"/>
      <point x="221" y="722"/>
      <point x="104" y="668" type="curve" smooth="yes"/>
      <point x="93" y="663"/>
      <point x="81" y="661"/>
      <point x="70" y="661" type="curve" smooth="yes"/>
      <point x="53" y="661"/>
      <point x="39" y="666"/>
      <point x="31" y="677" type="curve" smooth="yes"/>
      <point x="27" y="682"/>
      <point x="26" y="688"/>
      <point x="26" y="694" type="curve" smooth="yes"/>
      <point x="26" y="709"/>
      <point x="37" y="723"/>
      <point x="56" y="732" type="curve" smooth="yes"/>
      <point x="187" y="792"/>
      <point x="300" y="819"/>
      <point x="392" y="819" type="curve" smooth="yes"/>
      <point x="461" y="819"/>
      <point x="519" y="804"/>
      <point x="562" y="777" type="curve" smooth="yes"/>
      <point x="618" y="742"/>
      <point x="646" y="689"/>
      <point x="646" y="634" type="curve" smooth="yes"/>
      <point x="646" y="577"/>
      <point x="616" y="517"/>
      <point x="558" y="470" type="curve"/>
      <point x="661" y="456"/>
      <point x="745" y="400"/>
      <point x="745" y="292" type="curve" smooth="yes"/>
      <point x="745" y="286"/>
      <point x="745" y="280"/>
      <point x="744" y="274" type="curve" smooth="yes"/>
      <point x="729" y="83"/>
      <point x="536" y="0"/>
      <point x="380" y="-17" type="curve" smooth="yes"/>
      <point x="353" y="-20"/>
      <point x="326" y="-22"/>
      <point x="300" y="-22" type="curve" smooth="yes"/>
      <point x="225" y="-22"/>
      <point x="157" y="-8"/>
      <point x="130" y="27" type="curve" smooth="yes"/>
      <point x="124" y="34"/>
      <point x="121" y="44"/>
      <point x="121" y="54" type="curve" smooth="yes"/>
      <point x="121" y="110"/>
      <point x="125" y="247"/>
      <point x="125" y="376" type="curve" smooth="yes"/>
      <point x="125" y="463"/>
      <point x="123" y="547"/>
      <point x="116" y="596" type="curve" smooth="yes"/>
      <point x="116" y="597"/>
      <point x="116" y="599"/>
      <point x="116" y="600" type="curve" smooth="yes"/>
      <point x="116" y="620"/>
      <point x="138" y="638"/>
      <point x="165" y="643" type="curve" smooth="yes"/>
      <point x="169" y="644"/>
      <point x="173" y="644"/>
      <point x="177" y="644" type="curve" smooth="yes"/>
      <point x="201" y="644"/>
      <point x="221" y="632"/>
      <point x="224" y="614" type="curve" smooth="yes"/>
      <point x="230" y="567"/>
      <point x="232" y="497"/>
      <point x="233" y="422" type="curve" smooth="yes"/>
    </contour>
  </outline>
</glyph>
<glyph name="F" format="1">
  <advance width="710"/>
  <unicode hex="0046"/>
  <outline>
    <contour>
      <point x="654" y="781" type="curve" smooth="yes"/>
      <point x="654" y="760"/>
      <point x="630" y="739"/>
      <point x="600" y="736" type="curve" smooth="yes"/>
      <point x="551" y="731"/>
      <point x="461" y="726"/>
      <point x="329" y="726" type="curve" smooth="yes"/>
      <point x="295" y="726"/>
      <point x="259" y="726"/>
      <point x="219" y="727" type="curve"/>
      <point x="227" y="703"/>
      <point x="229" y="677"/>
      <point x="229" y="646" type="curve" smooth="yes"/>
      <point x="230" y="575"/>
      <point x="231" y="504"/>
      <point x="231" y="435" type="curve"/>
      <point x="267" y="434"/>
      <point x="298" y="433"/>
      <point x="330" y="433" type="curve" smooth="yes"/>
      <point x="387" y="433"/>
      <point x="444" y="435"/>
      <point x="524" y="439" type="curve" smooth="yes"/>
      <point x="525" y="439"/>
      <point x="526" y="439"/>
      <point x="527" y="439" type="curve" smooth="yes"/>
      <point x="554" y="439"/>
      <point x="574" y="425"/>
      <point x="574" y="406" type="curve" smooth="yes"/>
      <point x="574" y="405"/>
      <point x="574" y="404"/>
      <point x="574" y="403" type="curve" smooth="yes"/>
      <point x="572" y="382"/>
      <point x="546" y="362"/>
      <point x="516" y="361" type="curve" smooth="yes"/>
      <point x="434" y="357"/>
      <point x="374" y="355"/>
      <point x="313" y="355" type="curve" smooth="yes"/>
      <point x="287" y="355"/>
      <point x="260" y="355"/>
      <point x="232" y="356" type="curve"/>
      <point x="232" y="241"/>
      <point x="230" y="131"/>
      <point x="224" y="29" type="curve" smooth="yes"/>
      <point x="223" y="8"/>
      <point x="198" y="-12"/>
      <point x="168" y="-14" type="curve" smooth="yes"/>
      <point x="166" y="-14"/>
      <point x="165" y="-14"/>
      <point x="163" y="-14" type="curve" smooth="yes"/>
      <point x="136" y="-14"/>
      <point x="116" y="1"/>
      <point x="116" y="20" type="curve" smooth="yes"/>
      <point x="116" y="21" type="line" smooth="yes"/>
      <point x="122" y="125"/>
      <point x="124" y="240"/>
      <point x="124" y="360" type="curve"/>
      <point x="119" y="360"/>
      <point x="113" y="361"/>
      <point x="108" y="361" type="curve" smooth="yes"/>
      <point x="83" y="362"/>
      <point x="66" y="377"/>
      <point x="66" y="395" type="curve" smooth="yes"/>
      <point x="66" y="398"/>
      <point x="66" y="400"/>
      <point x="67" y="403" type="curve" smooth="yes"/>
      <point x="72" y="422"/>
      <point x="97" y="437"/>
      <point x="123" y="439" type="curve"/>
      <point x="122" y="503"/>
      <point x="122" y="568"/>
      <point x="121" y="634" type="curve" smooth="yes"/>
      <point x="120" y="703"/>
      <point x="109" y="719"/>
      <point x="86" y="729" type="curve" smooth="yes"/>
      <point x="83" y="730"/>
      <point x="78" y="732"/>
      <point x="73" y="733" type="curve" smooth="yes"/>
      <point x="63" y="736"/>
      <point x="59" y="742"/>
      <point x="59" y="748" type="curve" smooth="yes"/>
      <point x="59" y="771"/>
      <point x="111" y="809"/>
      <point x="111" y="809" type="curve"/>
      <point x="196" y="805"/>
      <point x="271" y="804"/>
      <point x="335" y="804" type="curve" smooth="yes"/>
      <point x="469" y="804"/>
      <point x="557" y="810"/>
      <point x="600" y="814" type="curve" smooth="yes"/>
      <point x="603" y="814"/>
      <point x="606" y="814"/>
      <point x="608" y="814" type="curve" smooth="yes"/>
      <point x="634" y="814"/>
      <point x="654" y="800"/>
    </contour>
  </outline>
</glyph>
<glyph name="L" format="1">
  <advance width="660"/>
  <unicode hex="004C"/>
  <outline>
    <contour>
      <point x="634" y="32" type="curve" smooth="yes"/>
      <point x="631" y="11"/>
      <point x="605" y="-8"/>
      <point x="575" y="-9" type="curve" smooth="yes"/>
      <point x="475" y="-13"/>
      <point x="382" y="-23"/>
      <point x="307" y="-23" type="curve" smooth="yes"/>
      <point x="198" y="-23"/>
      <point x="126" y="-3"/>
      <point x="126" y="84" type="curve" smooth="yes"/>
      <point x="126" y="88"/>
      <point x="126" y="92"/>
      <point x="126" y="96" type="curve"/>
      <point x="132" y="188"/>
      <point x="144" y="355"/>
      <point x="144" y="514" type="curve" smooth="yes"/>
      <point x="144" y="601"/>
      <point x="140" y="686"/>
      <point x="131" y="756" type="curve" smooth="yes"/>
      <point x="131" y="757"/>
      <point x="131" y="759"/>
      <point x="131" y="760" type="curve" smooth="yes"/>
      <point x="131" y="780"/>
      <point x="153" y="798"/>
      <point x="180" y="803" type="curve" smooth="yes"/>
      <point x="184" y="804"/>
      <point x="188" y="804"/>
      <point x="192" y="804" type="curve" smooth="yes"/>
      <point x="216" y="804"/>
      <point x="236" y="792"/>
      <point x="239" y="774" type="curve" smooth="yes"/>
      <point x="249" y="701"/>
      <point x="252" y="613"/>
      <point x="252" y="525" type="curve" smooth="yes"/>
      <point x="252" y="363"/>
      <point x="240" y="197"/>
      <point x="234" y="104" type="curve" smooth="yes"/>
      <point x="234" y="101"/>
      <point x="234" y="97"/>
      <point x="234" y="94" type="curve" smooth="yes"/>
      <point x="234" y="64"/>
      <point x="247" y="55"/>
      <point x="302" y="55" type="curve" smooth="yes"/>
      <point x="353" y="55"/>
      <point x="440" y="63"/>
      <point x="585" y="69" type="curve" smooth="yes"/>
      <point x="586" y="69"/>
      <point x="587" y="69"/>
      <point x="588" y="69" type="curve" smooth="yes"/>
      <point x="615" y="69"/>
      <point x="634" y="55"/>
      <point x="634" y="36" type="curve" smooth="yes"/>
      <point x="634" y="35"/>
      <point x="634" y="33"/>
    </contour>
  </outline>
</glyph>
<glyph name="P" format="1">
  <advance width="760"/>
  <unicode hex="0050"/>
  <outline>
    <contour>
      <point x="179" y="-24" type="curve" smooth="yes"/>
      <point x="177" y="-24"/>
      <point x="174" y="-24"/>
      <point x="172" y="-24" type="curve" smooth="yes"/>
      <point x="146" y="-24"/>
      <point x="126" y="-10"/>
      <point x="126" y="9" type="curve" smooth="yes"/>
      <point x="126" y="10" type="line" smooth="yes"/>
      <point x="129" y="91"/>
      <point x="130" y="178"/>
      <point x="130" y="262" type="curve" smooth="yes"/>
      <point x="130" y="288"/>
      <point x="130" y="314"/>
      <point x="130" y="339" type="curve"/>
      <point x="107" y="346"/>
      <point x="82" y="355"/>
      <point x="58" y="365" type="curve" smooth="yes"/>
      <point x="44" y="371"/>
      <point x="36" y="382"/>
      <point x="36" y="394" type="curve" smooth="yes"/>
      <point x="36" y="402"/>
      <point x="39" y="410"/>
      <point x="46" y="418" type="curve" smooth="yes"/>
      <point x="58" y="431"/>
      <point x="79" y="439"/>
      <point x="99" y="439" type="curve" smooth="yes"/>
      <point x="107" y="439"/>
      <point x="115" y="438"/>
      <point x="122" y="435" type="curve" smooth="yes"/>
      <point x="124" y="434"/>
      <point x="125" y="434"/>
      <point x="127" y="433" type="curve"/>
      <point x="125" y="498"/>
      <point x="121" y="554"/>
      <point x="116" y="596" type="curve" smooth="yes"/>
      <point x="116" y="597"/>
      <point x="116" y="599"/>
      <point x="116" y="600" type="curve" smooth="yes"/>
      <point x="116" y="620"/>
      <point x="138" y="638"/>
      <point x="165" y="643" type="curve" smooth="yes"/>
      <point x="169" y="644"/>
      <point x="173" y="644"/>
      <point x="177" y="644" type="curve" smooth="yes"/>
      <point x="201" y="644"/>
      <point x="221" y="632"/>
      <point x="224" y="614" type="curve" smooth="yes"/>
      <point x="232" y="559"/>
      <point x="236" y="483"/>
      <point x="238" y="397" type="curve"/>
      <point x="288" y="384"/>
      <point x="331" y="379"/>
      <point x="368" y="379" type="curve" smooth="yes"/>
      <point x="459" y="379"/>
      <point x="516" y="411"/>
      <point x="549" y="447" type="curve" smooth="yes"/>
      <point x="578" y="479"/>
      <point x="592" y="521"/>
      <point x="592" y="562" type="curve" smooth="yes"/>
      <point x="592" y="629"/>
      <point x="555" y="696"/>
      <point x="480" y="726" type="curve" smooth="yes"/>
      <point x="453" y="737"/>
      <point x="420" y="744"/>
      <point x="379" y="744" type="curve" smooth="yes"/>
      <point x="310" y="744"/>
      <point x="219" y="724"/>
      <point x="105" y="668" type="curve" smooth="yes"/>
      <point x="95" y="663"/>
      <point x="84" y="661"/>
      <point x="73" y="661" type="curve" smooth="yes"/>
      <point x="56" y="661"/>
      <point x="41" y="667"/>
      <point x="32" y="677" type="curve" smooth="yes"/>
      <point x="28" y="682"/>
      <point x="26" y="688"/>
      <point x="26" y="694" type="curve" smooth="yes"/>
      <point x="26" y="708"/>
      <point x="37" y="723"/>
      <point x="55" y="732" type="curve" smooth="yes"/>
      <point x="184" y="795"/>
      <point x="300" y="823"/>
      <point x="396" y="823" type="curve" smooth="yes"/>
      <point x="452" y="823"/>
      <point x="501" y="813"/>
      <point x="543" y="796" type="curve" smooth="yes"/>
      <point x="650" y="753"/>
      <point x="703" y="665"/>
      <point x="703" y="576" type="curve" smooth="yes"/>
      <point x="703" y="519"/>
      <point x="681" y="460"/>
      <point x="637" y="412" type="curve" smooth="yes"/>
      <point x="575" y="344"/>
      <point x="476" y="302"/>
      <point x="350" y="302" type="curve" smooth="yes"/>
      <point x="315" y="302"/>
      <point x="278" y="305"/>
      <point x="239" y="312" type="curve"/>
      <point x="239" y="216"/>
      <point x="237" y="114"/>
      <point x="234" y="20" type="curve" smooth="yes"/>
      <point x="233" y="-1"/>
      <point x="209" y="-21"/>
    </contour>
  </outline>
</glyph>
<glyph name="Q" format="1">
  <advance width="830"/>
  <unicode hex="0051"/>
  <outline>
    <contour>
      <point x="547" y="93" type="curve"/>
      <point x="616" y="138"/>
      <point x="675" y="228"/>
      <point x="675" y="380" type="curve" smooth="yes"/>
      <point x="675" y="471"/>
      <point x="637" y="514"/>
      <point x="598" y="514" type="curve" smooth="yes"/>
      <point x="566" y="514"/>
      <point x="526" y="489"/>
      <point x="508" y="401" type="curve" smooth="yes"/>
      <point x="503" y="376"/>
      <point x="501" y="348"/>
      <point x="501" y="320" type="curve" smooth="yes"/>
      <point x="501" y="248"/>
      <point x="516" y="167"/>
    </contour>
    <contour>
      <point x="460" y="58" type="curve"/>
      <point x="425" y="141"/>
      <point x="407" y="232"/>
      <point x="407" y="312" type="curve" smooth="yes"/>
      <point x="407" y="344"/>
      <point x="409" y="373"/>
      <point x="415" y="401" type="curve" smooth="yes"/>
      <point x="433" y="488"/>
      <point x="484" y="586"/>
      <point x="612" y="586" type="curve" smooth="yes"/>
      <point x="737" y="586"/>
      <point x="770" y="477"/>
      <point x="770" y="390" type="curve" smooth="yes"/>
      <point x="770" y="222"/>
      <point x="694" y="91"/>
      <point x="580" y="27" type="curve"/>
      <point x="623" y="-47"/>
      <point x="683" y="-109"/>
      <point x="759" y="-138" type="curve" smooth="yes"/>
      <point x="772" y="-143"/>
      <point x="779" y="-153"/>
      <point x="779" y="-164" type="curve" smooth="yes"/>
      <point x="779" y="-171"/>
      <point x="776" y="-179"/>
      <point x="770" y="-186" type="curve" smooth="yes"/>
      <point x="759" y="-198"/>
      <point x="739" y="-206"/>
      <point x="721" y="-206" type="curve" smooth="yes"/>
      <point x="714" y="-206"/>
      <point x="707" y="-205"/>
      <point x="701" y="-202" type="curve" smooth="yes"/>
      <point x="611" y="-164"/>
      <point x="542" y="-92"/>
      <point x="493" y="-7" type="curve"/>
      <point x="479" y="-10"/>
      <point x="464" y="-13"/>
      <point x="449" y="-15" type="curve" smooth="yes"/>
      <point x="435" y="-17"/>
      <point x="421" y="-17"/>
      <point x="408" y="-17" type="curve" smooth="yes"/>
      <point x="219" y="-17"/>
      <point x="66" y="132"/>
      <point x="66" y="385" type="curve" smooth="yes"/>
      <point x="66" y="620"/>
      <point x="185" y="766"/>
      <point x="346" y="809" type="curve" smooth="yes"/>
      <point x="377" y="817"/>
      <point x="408" y="821"/>
      <point x="438" y="821" type="curve" smooth="yes"/>
      <point x="561" y="821"/>
      <point x="666" y="755"/>
      <point x="699" y="652" type="curve" smooth="yes"/>
      <point x="700" y="649"/>
      <point x="700" y="647"/>
      <point x="700" y="644" type="curve" smooth="yes"/>
      <point x="700" y="626"/>
      <point x="683" y="608"/>
      <point x="658" y="601" type="curve" smooth="yes"/>
      <point x="652" y="599"/>
      <point x="645" y="598"/>
      <point x="639" y="598" type="curve" smooth="yes"/>
      <point x="617" y="598"/>
      <point x="598" y="608"/>
      <point x="593" y="624" type="curve" smooth="yes"/>
      <point x="567" y="704"/>
      <point x="493" y="742"/>
      <point x="421" y="742" type="curve" smooth="yes"/>
      <point x="403" y="742"/>
      <point x="386" y="740"/>
      <point x="369" y="735" type="curve" smooth="yes"/>
      <point x="284" y="713"/>
      <point x="174" y="620"/>
      <point x="174" y="397" type="curve" smooth="yes"/>
      <point x="174" y="154"/>
      <point x="322" y="56"/>
      <point x="432" y="56" type="curve" smooth="yes"/>
      <point x="438" y="56"/>
      <point x="443" y="56"/>
      <point x="449" y="57" type="curve" smooth="yes"/>
      <point x="453" y="57"/>
      <point x="456" y="57"/>
    </contour>
  </outline>
</glyph>
<glyph name="T" format="1">
  <advance width="720"/>
  <unicode hex="0054"/>
  <outline>
    <contour>
      <point x="684" y="772" type="curve" smooth="yes"/>
      <point x="681" y="751"/>
      <point x="654" y="732"/>
      <point x="625" y="731" type="curve" smooth="yes"/>
      <point x="556" y="728"/>
      <point x="478" y="723"/>
      <point x="402" y="722" type="curve"/>
      <point x="406" y="711"/>
      <point x="408" y="701"/>
      <point x="409" y="688" type="curve" smooth="yes"/>
      <point x="415" y="601"/>
      <point x="417" y="488"/>
      <point x="417" y="341" type="curve" smooth="yes"/>
      <point x="417" y="249"/>
      <point x="416" y="145"/>
      <point x="414" y="25" type="curve" smooth="yes"/>
      <point x="414" y="4"/>
      <point x="389" y="-16"/>
      <point x="359" y="-19" type="curve" smooth="yes"/>
      <point x="357" y="-19"/>
      <point x="354" y="-19"/>
      <point x="352" y="-19" type="curve" smooth="yes"/>
      <point x="326" y="-19"/>
      <point x="306" y="-4"/>
      <point x="306" y="15" type="curve" smooth="yes"/>
      <point x="308" y="135"/>
      <point x="309" y="239"/>
      <point x="309" y="330" type="curve" smooth="yes"/>
      <point x="309" y="476"/>
      <point x="307" y="586"/>
      <point x="301" y="672" type="curve" smooth="yes"/>
      <point x="299" y="705"/>
      <point x="285" y="707"/>
      <point x="268" y="709" type="curve"/>
      <point x="199" y="717"/>
      <point x="91" y="715"/>
      <point x="52" y="738" type="curve" smooth="yes"/>
      <point x="32" y="750"/>
      <point x="25" y="760"/>
      <point x="25" y="769" type="curve" smooth="yes"/>
      <point x="25" y="795"/>
      <point x="85" y="808"/>
      <point x="85" y="808" type="curve" smooth="yes"/>
      <point x="93" y="809"/>
      <point x="103" y="810"/>
      <point x="115" y="810" type="curve" smooth="yes"/>
      <point x="167" y="810"/>
      <point x="257" y="800"/>
      <point x="382" y="800" type="curve" smooth="yes"/>
      <point x="463" y="800"/>
      <point x="552" y="806"/>
      <point x="635" y="809" type="curve" smooth="yes"/>
      <point x="636" y="809"/>
      <point x="636" y="809"/>
      <point x="637" y="809" type="curve" smooth="yes"/>
      <point x="663" y="809"/>
      <point x="684" y="795"/>
      <point x="684" y="776" type="curve" smooth="yes"/>
      <point x="684" y="775"/>
      <point x="684" y="773"/>
    </contour>
  </outline>
</glyph>
<glyph name="U" format="1">
  <advance width="820"/>
  <unicode hex="0055"/>
  <outline>
    <contour>
      <point x="656" y="799" type="curve" smooth="yes"/>
      <point x="659" y="799"/>
      <point x="662" y="799"/>
      <point x="664" y="799" type="curve" smooth="yes"/>
      <point x="691" y="799"/>
      <point x="711" y="785"/>
      <point x="711" y="766" type="curve" smooth="yes"/>
      <point x="714" y="595"/>
      <point x="724" y="425"/>
      <point x="724" y="326" type="curve" smooth="yes"/>
      <point x="724" y="287"/>
      <point x="721" y="249"/>
      <point x="714" y="214" type="curve" smooth="yes"/>
      <point x="688" y="87"/>
      <point x="596" y="-24"/>
      <point x="402" y="-24" type="curve" smooth="yes"/>
      <point x="190" y="-24"/>
      <point x="96" y="88"/>
      <point x="96" y="314" type="curve" smooth="yes"/>
      <point x="96" y="413"/>
      <point x="107" y="615"/>
      <point x="107" y="754" type="curve" smooth="yes"/>
      <point x="107" y="775"/>
      <point x="131" y="796"/>
      <point x="161" y="799" type="curve" smooth="yes"/>
      <point x="164" y="799"/>
      <point x="167" y="799"/>
      <point x="169" y="799" type="curve" smooth="yes"/>
      <point x="195" y="799"/>
      <point x="215" y="785"/>
      <point x="215" y="766" type="curve" smooth="yes"/>
      <point x="215" y="625"/>
      <point x="204" y="421"/>
      <point x="204" y="326" type="curve" smooth="yes"/>
      <point x="204" y="110"/>
      <point x="280" y="54"/>
      <point x="418" y="54" type="curve" smooth="yes"/>
      <point x="532" y="54"/>
      <point x="585" y="102"/>
      <point x="607" y="214" type="curve" smooth="yes"/>
      <point x="613" y="244"/>
      <point x="616" y="278"/>
      <point x="616" y="314" type="curve" smooth="yes"/>
      <point x="616" y="409"/>
      <point x="606" y="581"/>
      <point x="603" y="754" type="curve" smooth="yes"/>
      <point x="603" y="775"/>
      <point x="626" y="796"/>
    </contour>
  </outline>
</glyph>
<glyph name="Y" format="1">
  <advance width="720"/>
  <unicode hex="0059"/>
  <outline>
    <contour>
      <point x="647" y="799" type="curve" smooth="yes"/>
      <point x="670" y="797"/>
      <point x="685" y="783"/>
      <point x="685" y="766" type="curve" smooth="yes"/>
      <point x="685" y="762"/>
      <point x="684" y="758"/>
      <point x="682" y="754" type="curve" smooth="yes"/>
      <point x="627" y="626"/>
      <point x="577" y="537"/>
      <point x="536" y="472" type="curve" smooth="yes"/>
      <point x="457" y="348"/>
      <point x="420" y="317"/>
      <point x="419" y="265" type="curve" smooth="yes"/>
      <point x="418" y="241"/>
      <point x="418" y="218"/>
      <point x="418" y="194" type="curve" smooth="yes"/>
      <point x="418" y="140"/>
      <point x="420" y="86"/>
      <point x="424" y="28" type="curve" smooth="yes"/>
      <point x="424" y="27"/>
      <point x="424" y="26"/>
      <point x="424" y="25" type="curve" smooth="yes"/>
      <point x="424" y="5"/>
      <point x="402" y="-15"/>
      <point x="373" y="-19" type="curve" smooth="yes"/>
      <point x="370" y="-19"/>
      <point x="366" y="-20"/>
      <point x="363" y="-20" type="curve" smooth="yes"/>
      <point x="338" y="-20"/>
      <point x="318" y="-7"/>
      <point x="316" y="12" type="curve" smooth="yes"/>
      <point x="312" y="71"/>
      <point x="310" y="127"/>
      <point x="310" y="183" type="curve" smooth="yes"/>
      <point x="310" y="207"/>
      <point x="310" y="231"/>
      <point x="311" y="255" type="curve" smooth="yes"/>
      <point x="311" y="273"/>
      <point x="314" y="289"/>
      <point x="319" y="305" type="curve"/>
      <point x="267" y="332"/>
      <point x="223" y="383"/>
      <point x="182" y="448" type="curve" smooth="yes"/>
      <point x="126" y="535"/>
      <point x="75" y="646"/>
      <point x="37" y="755" type="curve" smooth="yes"/>
      <point x="36" y="758"/>
      <point x="35" y="761"/>
      <point x="35" y="764" type="curve" smooth="yes"/>
      <point x="35" y="782"/>
      <point x="52" y="800"/>
      <point x="77" y="807" type="curve" smooth="yes"/>
      <point x="84" y="809"/>
      <point x="90" y="810"/>
      <point x="97" y="810" type="curve" smooth="yes"/>
      <point x="119" y="810"/>
      <point x="138" y="800"/>
      <point x="143" y="785" type="curve" smooth="yes"/>
      <point x="179" y="680"/>
      <point x="230" y="571"/>
      <point x="282" y="490" type="curve" smooth="yes"/>
      <point x="309" y="449"/>
      <point x="337" y="404"/>
      <point x="360" y="382" type="curve"/>
      <point x="381" y="413"/>
      <point x="408" y="449"/>
      <point x="438" y="496" type="curve" smooth="yes"/>
      <point x="477" y="557"/>
      <point x="525" y="642"/>
      <point x="578" y="766" type="curve" smooth="yes"/>
      <point x="586" y="785"/>
      <point x="614" y="799"/>
      <point x="640" y="799" type="curve" smooth="yes"/>
      <point x="642" y="799"/>
      <point x="645" y="799"/>
    </contour>
  </outline>
</glyph>
<glyph name="grave" format="1">
  <advance width="360"/>
  <unicode hex="0060"/>
  <outline>
    <contour>
      <point x="27" y="798" type="curve" smooth="yes"/>
      <point x="53" y="828" type="line" smooth="yes"/>
      <point x="53" y="828"/>
      <point x="68" y="848"/>
      <point x="89" y="848" type="curve" smooth="yes"/>
      <point x="98" y="848"/>
      <point x="108" y="844"/>
      <point x="119" y="834" type="curve" smooth="yes"/>
      <point x="207" y="751"/>
      <point x="312" y="606"/>
      <point x="323" y="583" type="curve" smooth="yes"/>
      <point x="323" y="583"/>
      <point x="321" y="541"/>
      <point x="296" y="541" type="curve" smooth="yes"/>
      <point x="291" y="541"/>
      <point x="285" y="542"/>
      <point x="277" y="547" type="curve" smooth="yes"/>
      <point x="248" y="564"/>
      <point x="111" y="699"/>
      <point x="29" y="764" type="curve" smooth="yes"/>
      <point x="23" y="769"/>
      <point x="20" y="776"/>
      <point x="20" y="782" type="curve" smooth="yes"/>
      <point x="20" y="788"/>
      <point x="23" y="793"/>
    </contour>
  </outline>
</glyph>
<glyph name="b" format="1">
  <advance width="670"/>
  <unicode hex="0062"/>
  <outline>
    <contour>
      <point x="214" y="542" type="curve" smooth="yes"/>
      <point x="212" y="546"/>
      <point x="211" y="550"/>
      <point x="211" y="554" type="curve" smooth="yes"/>
      <point x="211" y="568"/>
      <point x="223" y="583"/>
      <point x="242" y="591" type="curve" smooth="yes"/>
      <point x="287" y="608"/>
      <point x="330" y="617"/>
      <point x="371" y="617" type="curve" smooth="yes"/>
      <point x="372" y="617"/>
      <point x="372" y="617"/>
      <point x="373" y="617" type="curve" smooth="yes"/>
      <point x="541" y="617"/>
      <point x="603" y="482"/>
      <point x="603" y="350" type="curve" smooth="yes"/>
      <point x="603" y="321"/>
      <point x="600" y="292"/>
      <point x="594" y="264" type="curve" smooth="yes"/>
      <point x="568" y="133"/>
      <point x="469" y="-21"/>
      <point x="273" y="-21" type="curve" smooth="yes"/>
      <point x="172" y="-21"/>
      <point x="91" y="47"/>
      <point x="91" y="125" type="curve"/>
      <point x="91" y="232"/>
      <point x="93" y="356"/>
      <point x="93" y="470" type="curve" smooth="yes"/>
      <point x="93" y="616"/>
      <point x="91" y="745"/>
      <point x="81" y="801" type="curve" smooth="yes"/>
      <point x="81" y="802"/>
      <point x="81" y="804"/>
      <point x="81" y="805" type="curve" smooth="yes"/>
      <point x="81" y="823"/>
      <point x="99" y="840"/>
      <point x="124" y="845" type="curve" smooth="yes"/>
      <point x="128" y="846"/>
      <point x="132" y="846"/>
      <point x="136" y="846" type="curve" smooth="yes"/>
      <point x="158" y="846"/>
      <point x="176" y="835"/>
      <point x="179" y="819" type="curve" smooth="yes"/>
      <point x="189" y="761"/>
      <point x="192" y="642"/>
      <point x="192" y="507" type="curve" smooth="yes"/>
      <point x="192" y="385"/>
      <point x="189" y="251"/>
      <point x="189" y="135" type="curve"/>
      <point x="189" y="89"/>
      <point x="246" y="51"/>
      <point x="287" y="51" type="curve" smooth="yes"/>
      <point x="390" y="51"/>
      <point x="471" y="136"/>
      <point x="497" y="264" type="curve" smooth="yes"/>
      <point x="502" y="289"/>
      <point x="504" y="313"/>
      <point x="504" y="336" type="curve" smooth="yes"/>
      <point x="504" y="455"/>
      <point x="442" y="546"/>
      <point x="357" y="546" type="curve" smooth="yes"/>
      <point x="336" y="546"/>
      <point x="310" y="541"/>
      <point x="278" y="529" type="curve" smooth="yes"/>
      <point x="270" y="526"/>
      <point x="261" y="524"/>
      <point x="253" y="524" type="curve" smooth="yes"/>
      <point x="236" y="524"/>
      <point x="221" y="531"/>
    </contour>
  </outline>
</glyph>
<glyph name="l" format="1">
  <advance width="360"/>
  <unicode hex="006C"/>
  <outline>
    <contour>
      <point x="320" y="3" type="curve" smooth="yes"/>
      <point x="310" y="-12"/>
      <point x="289" y="-23"/>
      <point x="268" y="-23" type="curve" smooth="yes"/>
      <point x="263" y="-23"/>
      <point x="258" y="-22"/>
      <point x="254" y="-21" type="curve" smooth="yes"/>
      <point x="195" y="-7"/>
      <point x="116" y="32"/>
      <point x="111" y="145" type="curve" smooth="yes"/>
      <point x="107" y="246"/>
      <point x="106" y="333"/>
      <point x="106" y="415" type="curve" smooth="yes"/>
      <point x="106" y="536"/>
      <point x="109" y="651"/>
      <point x="111" y="800" type="curve" smooth="yes"/>
      <point x="111" y="819"/>
      <point x="133" y="837"/>
      <point x="160" y="840" type="curve" smooth="yes"/>
      <point x="162" y="840"/>
      <point x="165" y="840"/>
      <point x="167" y="840" type="curve" smooth="yes"/>
      <point x="191" y="840"/>
      <point x="209" y="827"/>
      <point x="209" y="810" type="curve" smooth="yes"/>
      <point x="207" y="661"/>
      <point x="204" y="546"/>
      <point x="204" y="425" type="curve" smooth="yes"/>
      <point x="204" y="343"/>
      <point x="205" y="258"/>
      <point x="209" y="157" type="curve" smooth="yes"/>
      <point x="212" y="70"/>
      <point x="261" y="55"/>
      <point x="296" y="47" type="curve" smooth="yes"/>
      <point x="314" y="43"/>
      <point x="325" y="31"/>
      <point x="325" y="18" type="curve" smooth="yes"/>
      <point x="325" y="13"/>
      <point x="323" y="8"/>
    </contour>
  </outline>
</glyph>
<glyph name="bar" format="1">
  <advance width="360"/>
  <unicode hex="007C"/>
  <outline>
    <contour>
      <point x="174" y="892" type="curve" smooth="yes"/>
      <point x="176" y="892"/>
      <point x="179" y="892"/>
      <point x="181" y="892" type="curve" smooth="yes"/>
      <point x="202" y="892"/>
      <point x="218" y="880"/>
      <point x="219" y="865" type="curve" smooth="yes"/>
      <point x="225" y="673"/>
      <point x="226" y="512"/>
      <point x="226" y="323" type="curve" smooth="yes"/>
      <point x="226" y="211"/>
      <point x="226" y="88"/>
      <point x="225" y="-55" type="curve" smooth="yes"/>
      <point x="225" y="-72"/>
      <point x="204" y="-89"/>
      <point x="180" y="-92" type="curve" smooth="yes"/>
      <point x="178" y="-92"/>
      <point x="175" y="-92"/>
      <point x="173" y="-92" type="curve" smooth="yes"/>
      <point x="152" y="-92"/>
      <point x="135" y="-80"/>
      <point x="135" y="-65" type="curve" smooth="yes"/>
      <point x="136" y="118"/>
      <point x="137" y="266"/>
      <point x="137" y="404" type="curve" smooth="yes"/>
      <point x="137" y="555"/>
      <point x="136" y="695"/>
      <point x="131" y="855" type="curve" smooth="yes"/>
      <point x="131" y="856" type="line" smooth="yes"/>
      <point x="131" y="873"/>
      <point x="151" y="889"/>
    </contour>
  </outline>
</glyph>
<glyph name="braceright" format="1">
  <advance width="360"/>
  <unicode hex="007D"/>
  <outline>
    <contour>
      <point x="61" y="-60" type="curve" smooth="yes"/>
      <point x="64" y="-44"/>
      <point x="85" y="-31"/>
      <point x="106" y="-31" type="curve" smooth="yes"/>
      <point x="117" y="-31"/>
      <point x="125" y="-31"/>
      <point x="132" y="-30" type="curve" smooth="yes"/>
      <point x="157" y="-26"/>
      <point x="166" y="-10"/>
      <point x="166" y="28" type="curve" smooth="yes"/>
      <point x="166" y="55"/>
      <point x="161" y="93"/>
      <point x="155" y="145" type="curve"/>
      <point x="151" y="180"/>
      <point x="145" y="217"/>
      <point x="145" y="252" type="curve" smooth="yes"/>
      <point x="145" y="309"/>
      <point x="160" y="363"/>
      <point x="220" y="401" type="curve"/>
      <point x="165" y="442"/>
      <point x="153" y="498"/>
      <point x="153" y="553" type="curve" smooth="yes"/>
      <point x="153" y="582"/>
      <point x="156" y="610"/>
      <point x="159" y="636" type="curve"/>
      <point x="164" y="679"/>
      <point x="168" y="715"/>
      <point x="168" y="745" type="curve" smooth="yes"/>
      <point x="168" y="800"/>
      <point x="153" y="831"/>
      <point x="94" y="831" type="curve" smooth="yes"/>
      <point x="75" y="831"/>
      <point x="61" y="842"/>
      <point x="61" y="856" type="curve" smooth="yes"/>
      <point x="61" y="857"/>
      <point x="61" y="859"/>
      <point x="61" y="860" type="curve" smooth="yes"/>
      <point x="64" y="876"/>
      <point x="85" y="889"/>
      <point x="106" y="889" type="curve" smooth="yes"/>
      <point x="223" y="889"/>
      <point x="248" y="825"/>
      <point x="248" y="754" type="curve" smooth="yes"/>
      <point x="248" y="715"/>
      <point x="241" y="674"/>
      <point x="237" y="640" type="curve" smooth="yes"/>
      <point x="234" y="614"/>
      <point x="232" y="589"/>
      <point x="232" y="565" type="curve" smooth="yes"/>
      <point x="232" y="504"/>
      <point x="248" y="452"/>
      <point x="313" y="425" type="curve" smooth="yes"/>
      <point x="331" y="417"/>
      <point x="338" y="410"/>
      <point x="338" y="403" type="curve" smooth="yes"/>
      <point x="338" y="386"/>
      <point x="299" y="373"/>
      <point x="299" y="373" type="curve" smooth="yes"/>
      <point x="243" y="358"/>
      <point x="226" y="318"/>
      <point x="226" y="254" type="curve" smooth="yes"/>
      <point x="226" y="227"/>
      <point x="229" y="195"/>
      <point x="233" y="159" type="curve"/>
      <point x="237" y="122"/>
      <point x="247" y="79"/>
      <point x="247" y="39" type="curve" smooth="yes"/>
      <point x="247" y="-19"/>
      <point x="226" y="-71"/>
      <point x="138" y="-85" type="curve" smooth="yes"/>
      <point x="124" y="-87"/>
      <point x="109" y="-89"/>
      <point x="94" y="-89" type="curve" smooth="yes"/>
      <point x="75" y="-89"/>
      <point x="61" y="-78"/>
      <point x="61" y="-64" type="curve" smooth="yes"/>
      <point x="61" y="-63"/>
      <point x="61" y="-61"/>
    </contour>
  </outline>
</glyph>
<glyph name="asciitilde" format="1">
  <advance width="600"/>
  <unicode hex="007E"/>
  <outline>
    <contour>
      <point x="511" y="421" type="curve" smooth="yes"/>
      <point x="533" y="419"/>
      <point x="549" y="406"/>
      <point x="549" y="390" type="curve" smooth="yes"/>
      <point x="549" y="387"/>
      <point x="549" y="385"/>
      <point x="548" y="382" type="curve" smooth="yes"/>
      <point x="541" y="358"/>
      <point x="525" y="329"/>
      <point x="501" y="302" type="curve"/>
      <point x="480" y="279"/>
      <point x="442" y="249"/>
      <point x="389" y="249" type="curve" smooth="yes"/>
      <point x="346" y="249"/>
      <point x="317" y="267"/>
      <point x="296" y="283" type="curve"/>
      <point x="269" y="304"/>
      <point x="248" y="328"/>
      <point x="228" y="344" type="curve"/>
      <point x="213" y="357"/>
      <point x="202" y="359"/>
      <point x="197" y="359" type="curve" smooth="yes"/>
      <point x="196" y="359"/>
      <point x="192" y="358"/>
      <point x="182" y="348" type="curve"/>
      <point x="167" y="332"/>
      <point x="154" y="308"/>
      <point x="147" y="290" type="curve" smooth="yes"/>
      <point x="140" y="273"/>
      <point x="117" y="260"/>
      <point x="93" y="260" type="curve" smooth="yes"/>
      <point x="91" y="260"/>
      <point x="88" y="260"/>
      <point x="86" y="260" type="curve" smooth="yes"/>
      <point x="65" y="262"/>
      <point x="51" y="275"/>
      <point x="51" y="290" type="curve" smooth="yes"/>
      <point x="51" y="293"/>
      <point x="52" y="297"/>
      <point x="53" y="300" type="curve" smooth="yes"/>
      <point x="62" y="322"/>
      <point x="76" y="353"/>
      <point x="102" y="382" type="curve"/>
      <point x="123" y="404"/>
      <point x="160" y="431"/>
      <point x="211" y="431" type="curve" smooth="yes"/>
      <point x="254" y="431"/>
      <point x="284" y="414"/>
      <point x="306" y="396" type="curve"/>
      <point x="332" y="376"/>
      <point x="353" y="350"/>
      <point x="372" y="335" type="curve"/>
      <point x="387" y="323"/>
      <point x="398" y="321"/>
      <point x="403" y="321" type="curve" smooth="yes"/>
      <point x="404" y="321" type="line" smooth="yes"/>
      <point x="406" y="321"/>
      <point x="411" y="322"/>
      <point x="421" y="334" type="curve"/>
      <point x="435" y="349"/>
      <point x="447" y="374"/>
      <point x="452" y="388" type="curve" smooth="yes"/>
      <point x="458" y="406"/>
      <point x="482" y="421"/>
      <point x="507" y="421" type="curve" smooth="yes"/>
      <point x="508" y="421"/>
      <point x="510" y="421"/>
    </contour>
  </outline>
</glyph>
<glyph name="guillemotright" format="1">
  <advance width="720"/>
  <unicode hex="00BB"/>
  <outline>
    <contour>
      <point x="357" y="606" type="curve" smooth="yes"/>
      <point x="367" y="612"/>
      <point x="377" y="615"/>
      <point x="387" y="615" type="curve" smooth="yes"/>
      <point x="398" y="615"/>
      <point x="408" y="611"/>
      <point x="416" y="604" type="curve" smooth="yes"/>
      <point x="473" y="551"/>
      <point x="586" y="446"/>
      <point x="649" y="360" type="curve" smooth="yes"/>
      <point x="652" y="356"/>
      <point x="654" y="351"/>
      <point x="654" y="346" type="curve" smooth="yes"/>
      <point x="654" y="337"/>
      <point x="649" y="328"/>
      <point x="641" y="320" type="curve" smooth="yes"/>
      <point x="561" y="250"/>
      <point x="459" y="143"/>
      <point x="430" y="91" type="curve" smooth="yes"/>
      <point x="421" y="75"/>
      <point x="406" y="64"/>
      <point x="387" y="64" type="curve" smooth="yes"/>
      <point x="383" y="64"/>
      <point x="380" y="64"/>
      <point x="376" y="65" type="curve" smooth="yes"/>
      <point x="360" y="68"/>
      <point x="354" y="77"/>
      <point x="354" y="88" type="curve" smooth="yes"/>
      <point x="354" y="94"/>
      <point x="356" y="102"/>
      <point x="360" y="109" type="curve" smooth="yes"/>
      <point x="394" y="170"/>
      <point x="464" y="263"/>
      <point x="546" y="339" type="curve"/>
      <point x="487" y="415"/>
      <point x="404" y="509"/>
      <point x="354" y="556" type="curve" smooth="yes"/>
      <point x="346" y="563"/>
      <point x="342" y="573"/>
      <point x="342" y="582" type="curve" smooth="yes"/>
      <point x="342" y="591"/>
      <point x="346" y="600"/>
    </contour>
    <contour>
      <point x="87" y="606" type="curve" smooth="yes"/>
      <point x="97" y="612"/>
      <point x="107" y="615"/>
      <point x="117" y="615" type="curve" smooth="yes"/>
      <point x="128" y="615"/>
      <point x="138" y="611"/>
      <point x="146" y="604" type="curve" smooth="yes"/>
      <point x="203" y="551"/>
      <point x="316" y="446"/>
      <point x="379" y="360" type="curve" smooth="yes"/>
      <point x="382" y="356"/>
      <point x="384" y="351"/>
      <point x="384" y="346" type="curve" smooth="yes"/>
      <point x="384" y="337"/>
      <point x="379" y="328"/>
      <point x="371" y="320" type="curve" smooth="yes"/>
      <point x="291" y="250"/>
      <point x="189" y="143"/>
      <point x="160" y="91" type="curve" smooth="yes"/>
      <point x="151" y="75"/>
      <point x="136" y="64"/>
      <point x="117" y="64" type="curve" smooth="yes"/>
      <point x="113" y="64"/>
      <point x="110" y="64"/>
      <point x="106" y="65" type="curve" smooth="yes"/>
      <point x="90" y="68"/>
      <point x="84" y="77"/>
      <point x="84" y="88" type="curve" smooth="yes"/>
      <point x="84" y="94"/>
      <point x="86" y="102"/>
      <point x="90" y="109" type="curve" smooth="yes"/>
      <point x="124" y="170"/>
      <point x="194" y="263"/>
      <point x="276" y="339" type="curve"/>
      <point x="217" y="415"/>
      <point x="134" y="509"/>
      <point x="84" y="556" type="curve" smooth="yes"/>
      <point x="76" y="563"/>
      <point x="72" y="573"/>
      <point x="72" y="582" type="curve" smooth="yes"/>
      <point x="72" y="591"/>
      <point x="76" y="600"/>
    </contour>
  </outline>
</glyph>
<glyph name="uni0E02" format="1">
  <advance width="600"/>
  <unicode hex="0E02"/>
  <outline>
    <contour>
      <point x="519" y="594" type="curve" smooth="yes"/>
      <point x="541" y="593"/>
      <point x="557" y="580"/>
      <point x="557" y="565" type="curve" smooth="yes"/>
      <point x="557" y="563"/>
      <point x="557" y="561"/>
      <point x="556" y="559" type="curve" smooth="yes"/>
      <point x="524" y="435"/>
      <point x="506" y="341"/>
      <point x="491" y="256" type="curve"/>
      <point x="486" y="228"/>
      <point x="482" y="203"/>
      <point x="477" y="179" type="curve" smooth="yes"/>
      <point x="459" y="91"/>
      <point x="445" y="-19"/>
      <point x="333" y="-19" type="curve" smooth="yes"/>
      <point x="244" y="-19"/>
      <point x="237" y="74"/>
      <point x="219" y="160" type="curve"/>
      <point x="204" y="235"/>
      <point x="191" y="322"/>
      <point x="179" y="433" type="curve"/>
      <point x="174" y="482"/>
      <point x="161" y="518"/>
      <point x="149" y="531" type="curve"/>
      <point x="126" y="506"/>
      <point x="104" y="459"/>
      <point x="104" y="459" type="curve" smooth="yes"/>
      <point x="97" y="443"/>
      <point x="75" y="432"/>
      <point x="53" y="432" type="curve" smooth="yes"/>
      <point x="50" y="432"/>
      <point x="47" y="432"/>
      <point x="45" y="432" type="curve" smooth="yes"/>
      <point x="26" y="434"/>
      <point x="14" y="446"/>
      <point x="14" y="460" type="curve" smooth="yes"/>
      <point x="14" y="463"/>
      <point x="14" y="467"/>
      <point x="16" y="471" type="curve"/>
      <point x="16" y="471"/>
      <point x="48" y="604"/>
      <point x="157" y="604" type="curve" smooth="yes"/>
      <point x="253" y="604"/>
      <point x="264" y="515"/>
      <point x="271" y="447" type="curve"/>
      <point x="283" y="338"/>
      <point x="296" y="253"/>
      <point x="311" y="180" type="curve" smooth="yes"/>
      <point x="323" y="121"/>
      <point x="335" y="78"/>
      <point x="348" y="57" type="curve"/>
      <point x="365" y="85"/>
      <point x="381" y="156"/>
      <point x="399" y="254" type="curve"/>
      <point x="414" y="339"/>
      <point x="432" y="435"/>
      <point x="464" y="561" type="curve" smooth="yes"/>
      <point x="469" y="578"/>
      <point x="493" y="594"/>
      <point x="517" y="594" type="curve" smooth="yes"/>
      <point x="518" y="594"/>
      <point x="518" y="594"/>
    </contour>
  </outline>
</glyph>
<glyph name="uni0E03" format="1">
  <advance width="610"/>
  <unicode hex="0E03"/>
  <outline>
    <contour>
      <point x="230" y="198" type="curve" smooth="yes"/>
      <point x="224" y="266"/>
      <point x="226" y="345"/>
      <point x="224" y="435" type="curve"/>
      <point x="224" y="451"/>
      <point x="224" y="467"/>
      <point x="224" y="481" type="curve" smooth="yes"/>
      <point x="224" y="495"/>
      <point x="224" y="509"/>
      <point x="223" y="521" type="curve"/>
      <point x="189" y="480"/>
      <point x="163" y="442"/>
      <point x="143" y="419" type="curve" smooth="yes"/>
      <point x="130" y="404"/>
      <point x="118" y="400"/>
      <point x="107" y="400" type="curve" smooth="yes"/>
      <point x="93" y="400"/>
      <point x="82" y="408"/>
      <point x="80" y="409" type="curve" smooth="yes"/>
      <point x="49" y="431"/>
      <point x="33" y="475"/>
      <point x="11" y="577" type="curve" smooth="yes"/>
      <point x="11" y="578"/>
      <point x="11" y="580"/>
      <point x="11" y="581" type="curve" smooth="yes"/>
      <point x="11" y="595"/>
      <point x="25" y="607"/>
      <point x="44" y="612" type="curve" smooth="yes"/>
      <point x="48" y="613"/>
      <point x="52" y="613"/>
      <point x="56" y="613" type="curve" smooth="yes"/>
      <point x="73" y="613"/>
      <point x="87" y="605"/>
      <point x="89" y="593" type="curve" smooth="yes"/>
      <point x="99" y="548"/>
      <point x="109" y="516"/>
      <point x="117" y="494" type="curve"/>
      <point x="139" y="523"/>
      <point x="166" y="558"/>
      <point x="198" y="593" type="curve" smooth="yes"/>
      <point x="207" y="603"/>
      <point x="223" y="609"/>
      <point x="236" y="609" type="curve" smooth="yes"/>
      <point x="245" y="609"/>
      <point x="254" y="607"/>
      <point x="262" y="604" type="curve" smooth="yes"/>
      <point x="302" y="589"/>
      <point x="309" y="550"/>
      <point x="309" y="508" type="curve" smooth="yes"/>
      <point x="309" y="487"/>
      <point x="307" y="465"/>
      <point x="307" y="445" type="curve"/>
      <point x="309" y="355"/>
      <point x="314" y="278"/>
      <point x="320" y="212" type="curve" smooth="yes"/>
      <point x="328" y="127"/>
      <point x="344" y="68"/>
      <point x="358" y="48" type="curve"/>
      <point x="376" y="72"/>
      <point x="395" y="144"/>
      <point x="414" y="250" type="curve"/>
      <point x="429" y="333"/>
      <point x="445" y="438"/>
      <point x="474" y="561" type="curve" smooth="yes"/>
      <point x="478" y="578"/>
      <point x="502" y="594"/>
      <point x="526" y="594" type="curve" smooth="yes"/>
      <point x="527" y="594"/>
      <point x="527" y="594"/>
      <point x="528" y="594" type="curve" smooth="yes"/>
      <point x="551" y="593"/>
      <point x="567" y="580"/>
      <point x="567" y="564" type="curve" smooth="yes"/>
      <point x="567" y="562"/>
      <point x="566" y="561"/>
      <point x="566" y="559" type="curve" smooth="yes"/>
      <point x="537" y="438"/>
      <point x="521" y="335"/>
      <point x="506" y="250" type="curve"/>
      <point x="481" y="114"/>
      <point x="471" y="-24"/>
      <point x="343" y="-24" type="curve" smooth="yes"/>
      <point x="243" y="-24"/>
      <point x="240" y="87"/>
    </contour>
  </outline>
</glyph>
<glyph name="uni0E05" format="1">
  <advance width="660"/>
  <unicode hex="0E05"/>
  <outline>
    <contour>
      <point x="401" y="349" type="curve" smooth="yes"/>
      <point x="401" y="347"/>
      <point x="402" y="346"/>
      <point x="402" y="344" type="curve" smooth="yes"/>
      <point x="402" y="328"/>
      <point x="384" y="313"/>
      <point x="361" y="308" type="curve" smooth="yes"/>
      <point x="242" y="283"/>
      <point x="254" y="64"/>
      <point x="223" y="5" type="curve" smooth="yes"/>
      <point x="223" y="5"/>
      <point x="207" y="-18"/>
      <point x="182" y="-18" type="curve" smooth="yes"/>
      <point x="172" y="-18"/>
      <point x="160" y="-14"/>
      <point x="148" y="-4" type="curve" smooth="yes"/>
      <point x="117" y="22"/>
      <point x="60" y="193"/>
      <point x="60" y="349" type="curve" smooth="yes"/>
      <point x="60" y="464"/>
      <point x="86" y="551"/>
      <point x="155" y="594" type="curve" smooth="yes"/>
      <point x="180" y="609"/>
      <point x="205" y="616"/>
      <point x="230" y="616" type="curve" smooth="yes"/>
      <point x="278" y="616"/>
      <point x="324" y="572"/>
      <point x="344" y="540" type="curve"/>
      <point x="361" y="568"/>
      <point x="397" y="611"/>
      <point x="440" y="615" type="curve" smooth="yes"/>
      <point x="446" y="616"/>
      <point x="452" y="616"/>
      <point x="457" y="616" type="curve" smooth="yes"/>
      <point x="569" y="616"/>
      <point x="600" y="492"/>
      <point x="600" y="357" type="curve" smooth="yes"/>
      <point x="600" y="232"/>
      <point x="568" y="120"/>
      <point x="535" y="26" type="curve" smooth="yes"/>
      <point x="529" y="9"/>
      <point x="506" y="-4"/>
      <point x="483" y="-4" type="curve" smooth="yes"/>
      <point x="481" y="-4"/>
      <point x="480" y="-4"/>
      <point x="478" y="-4" type="curve" smooth="yes"/>
      <point x="458" y="-2"/>
      <point x="444" y="11"/>
      <point x="444" y="26" type="curve" smooth="yes"/>
      <point x="444" y="29"/>
      <point x="444" y="31"/>
      <point x="445" y="34" type="curve" smooth="yes"/>
      <point x="478" y="126"/>
      <point x="508" y="230"/>
      <point x="508" y="347" type="curve" smooth="yes"/>
      <point x="508" y="506"/>
      <point x="448" y="549"/>
      <point x="441" y="549" type="curve" smooth="yes"/>
      <point x="439" y="549"/>
      <point x="414" y="540"/>
      <point x="380" y="497" type="curve" smooth="yes"/>
      <point x="363" y="476"/>
      <point x="349" y="469"/>
      <point x="336" y="469" type="curve" smooth="yes"/>
      <point x="314" y="469"/>
      <point x="299" y="490"/>
      <point x="299" y="490" type="curve" smooth="yes"/>
      <point x="259" y="542"/>
      <point x="229" y="549"/>
      <point x="218" y="549" type="curve" smooth="yes"/>
      <point x="215" y="549"/>
      <point x="213" y="548"/>
      <point x="213" y="548" type="curve" smooth="yes"/>
      <point x="195" y="540"/>
      <point x="152" y="479"/>
      <point x="152" y="359" type="curve" smooth="yes"/>
      <point x="152" y="289"/>
      <point x="163" y="226"/>
      <point x="179" y="162" type="curve"/>
      <point x="196" y="234"/>
      <point x="238" y="349"/>
      <point x="349" y="372" type="curve" smooth="yes"/>
      <point x="353" y="373"/>
      <point x="358" y="373"/>
      <point x="362" y="373" type="curve" smooth="yes"/>
      <point x="382" y="373"/>
      <point x="398" y="364"/>
    </contour>
  </outline>
</glyph>
<glyph name="uni0E0B" format="1">
  <advance width="630"/>
  <unicode hex="0E0B"/>
  <outline>
    <contour>
      <point x="288" y="215" type="curve" smooth="yes"/>
      <point x="288" y="130"/>
      <point x="308" y="57"/>
      <point x="326" y="44" type="curve"/>
      <point x="411" y="46"/>
      <point x="461" y="88"/>
      <point x="472" y="159" type="curve" smooth="yes"/>
      <point x="473" y="167"/>
      <point x="474" y="176"/>
      <point x="474" y="185" type="curve" smooth="yes"/>
      <point x="474" y="267"/>
      <point x="415" y="356"/>
      <point x="300" y="391" type="curve"/>
      <point x="294" y="337"/>
      <point x="288" y="277"/>
    </contour>
    <contour>
      <point x="306" y="483" type="curve"/>
      <point x="353" y="511"/>
      <point x="426" y="564"/>
      <point x="517" y="640" type="curve" smooth="yes"/>
      <point x="528" y="649"/>
      <point x="543" y="654"/>
      <point x="557" y="654" type="curve" smooth="yes"/>
      <point x="567" y="654"/>
      <point x="576" y="651"/>
      <point x="583" y="647" type="curve" smooth="yes"/>
      <point x="592" y="641"/>
      <point x="596" y="633"/>
      <point x="596" y="625" type="curve" smooth="yes"/>
      <point x="596" y="617"/>
      <point x="592" y="608"/>
      <point x="583" y="600" type="curve" smooth="yes"/>
      <point x="491" y="524"/>
      <point x="410" y="473"/>
      <point x="360" y="443" type="curve"/>
      <point x="495" y="395"/>
      <point x="566" y="294"/>
      <point x="566" y="195" type="curve" smooth="yes"/>
      <point x="566" y="181"/>
      <point x="565" y="167"/>
      <point x="562" y="153" type="curve" smooth="yes"/>
      <point x="544" y="63"/>
      <point x="459" y="-24"/>
      <point x="313" y="-24" type="curve" smooth="yes"/>
      <point x="303" y="-24"/>
      <point x="294" y="-22"/>
      <point x="286" y="-20" type="curve" smooth="yes"/>
      <point x="208" y="4"/>
      <point x="199" y="110"/>
      <point x="199" y="205" type="curve" smooth="yes"/>
      <point x="199" y="313"/>
      <point x="226" y="396"/>
      <point x="226" y="477" type="curve" smooth="yes"/>
      <point x="226" y="486"/>
      <point x="226" y="494"/>
      <point x="225" y="503" type="curve"/>
      <point x="194" y="467"/>
      <point x="167" y="438"/>
      <point x="154" y="420" type="curve"/>
      <point x="154" y="420"/>
      <point x="141" y="398"/>
      <point x="118" y="398" type="curve" smooth="yes"/>
      <point x="110" y="398"/>
      <point x="101" y="401"/>
      <point x="90" y="409" type="curve" smooth="yes"/>
      <point x="62" y="429"/>
      <point x="33" y="474"/>
      <point x="11" y="577" type="curve" smooth="yes"/>
      <point x="11" y="578"/>
      <point x="11" y="580"/>
      <point x="11" y="581" type="curve" smooth="yes"/>
      <point x="11" y="595"/>
      <point x="25" y="607"/>
      <point x="44" y="612" type="curve" smooth="yes"/>
      <point x="48" y="613"/>
      <point x="52" y="613"/>
      <point x="56" y="613" type="curve" smooth="yes"/>
      <point x="73" y="613"/>
      <point x="87" y="605"/>
      <point x="89" y="593" type="curve" smooth="yes"/>
      <point x="100" y="543"/>
      <point x="112" y="509"/>
      <point x="124" y="487" type="curve"/>
      <point x="150" y="516"/>
      <point x="183" y="553"/>
      <point x="216" y="596" type="curve" smooth="yes"/>
      <point x="229" y="613"/>
      <point x="241" y="618"/>
      <point x="252" y="618" type="curve" smooth="yes"/>
      <point x="274" y="618"/>
      <point x="289" y="595"/>
      <point x="289" y="595" type="curve"/>
      <point x="300" y="557"/>
      <point x="305" y="517"/>
    </contour>
  </outline>
</glyph>
<glyph name="uni0E0E" format="1">
  <advance width="660"/>
  <unicode hex="0E0E"/>
  <outline>
    <contour>
      <point x="470" y="-230" type="curve"/>
      <point x="449" y="-200"/>
      <point x="347" y="-137"/>
      <point x="284" y="-137" type="curve" smooth="yes"/>
      <point x="268" y="-137"/>
      <point x="254" y="-141"/>
      <point x="242" y="-151" type="curve" smooth="yes"/>
      <point x="234" y="-157"/>
      <point x="220" y="-174"/>
      <point x="214" y="-209" type="curve" smooth="yes"/>
      <point x="211" y="-227"/>
      <point x="188" y="-242"/>
      <point x="164" y="-242" type="curve" smooth="yes"/>
      <point x="142" y="-242"/>
      <point x="126" y="-231"/>
      <point x="126" y="-215" type="curve" smooth="yes"/>
      <point x="126" y="-214"/>
      <point x="126" y="-212"/>
      <point x="126" y="-211" type="curve" smooth="yes"/>
      <point x="133" y="-168"/>
      <point x="150" y="-134"/>
      <point x="183" y="-109" type="curve" smooth="yes"/>
      <point x="213" y="-86"/>
      <point x="246" y="-77"/>
      <point x="279" y="-77" type="curve" smooth="yes"/>
      <point x="349" y="-77"/>
      <point x="424" y="-118"/>
      <point x="471" y="-152" type="curve"/>
      <point x="471" y="-132"/>
      <point x="470" y="-100"/>
      <point x="470" y="-80" type="curve" smooth="yes"/>
      <point x="470" y="63"/>
      <point x="476" y="412"/>
      <point x="476" y="460" type="curve" smooth="yes"/>
      <point x="476" y="525"/>
      <point x="429" y="544"/>
      <point x="375" y="544" type="curve" smooth="yes"/>
      <point x="322" y="544"/>
      <point x="233" y="534"/>
      <point x="183" y="521" type="curve"/>
      <point x="203" y="378"/>
      <point x="229" y="227"/>
      <point x="229" y="135" type="curve" smooth="yes"/>
      <point x="229" y="127"/>
      <point x="229" y="119"/>
      <point x="229" y="112" type="curve" smooth="yes"/>
      <point x="229" y="94"/>
      <point x="229" y="76"/>
      <point x="225" y="60" type="curve" smooth="yes"/>
      <point x="221" y="42"/>
      <point x="214" y="13"/>
      <point x="177" y="-5" type="curve" smooth="yes"/>
      <point x="161" y="-13"/>
      <point x="144" y="-16"/>
      <point x="128" y="-16" type="curve" smooth="yes"/>
      <point x="90" y="-16"/>
      <point x="70" y="-2"/>
      <point x="46" y="8" type="curve" smooth="yes"/>
      <point x="33" y="13"/>
      <point x="26" y="24"/>
      <point x="26" y="35" type="curve" smooth="yes"/>
      <point x="26" y="42"/>
      <point x="29" y="50"/>
      <point x="35" y="57" type="curve" smooth="yes"/>
      <point x="46" y="69"/>
      <point x="65" y="76"/>
      <point x="83" y="76" type="curve" smooth="yes"/>
      <point x="91" y="76"/>
      <point x="97" y="75"/>
      <point x="104" y="72" type="curve" smooth="yes"/>
      <point x="113" y="68"/>
      <point x="120" y="65"/>
      <point x="128" y="62" type="curve"/>
      <point x="131" y="77"/>
      <point x="131" y="99"/>
      <point x="131" y="125" type="curve" smooth="yes"/>
      <point x="131" y="214"/>
      <point x="101" y="382"/>
      <point x="81" y="531" type="curve" smooth="yes"/>
      <point x="81" y="532"/>
      <point x="81" y="533"/>
      <point x="81" y="534" type="curve" smooth="yes"/>
      <point x="81" y="546"/>
      <point x="91" y="561"/>
      <point x="108" y="569" type="curve" smooth="yes"/>
      <point x="181" y="603"/>
      <point x="306" y="616"/>
      <point x="389" y="616" type="curve" smooth="yes"/>
      <point x="487" y="616"/>
      <point x="574" y="569"/>
      <point x="574" y="470" type="curve" smooth="yes"/>
      <point x="574" y="420"/>
      <point x="563" y="71"/>
      <point x="563" y="-70" type="curve" smooth="yes"/>
      <point x="563" y="-111"/>
      <point x="564" y="-152"/>
      <point x="566" y="-194" type="curve" smooth="yes"/>
      <point x="566" y="-195" type="line" smooth="yes"/>
      <point x="566" y="-214"/>
      <point x="554" y="-235"/>
      <point x="529" y="-235" type="curve" smooth="yes"/>
      <point x="509" y="-235"/>
      <point x="470" y="-230"/>
    </contour>
  </outline>
</glyph>
<glyph name="uni0E10" format="1">
  <advance width="600"/>
  <unicode hex="0E10"/>
  <outline>
    <contour>
      <point x="474" y="-62" type="curve" smooth="yes"/>
      <point x="476" y="-62"/>
      <point x="477" y="-62"/>
      <point x="479" y="-62" type="curve" smooth="yes"/>
      <point x="499" y="-62"/>
      <point x="514" y="-72"/>
      <point x="514" y="-86" type="curve" smooth="yes"/>
      <point x="514" y="-141"/>
      <point x="519" y="-173"/>
      <point x="524" y="-190" type="curve" smooth="yes"/>
      <point x="524" y="-190"/>
      <point x="526" y="-195"/>
      <point x="526" y="-201" type="curve" smooth="yes"/>
      <point x="526" y="-213"/>
      <point x="519" y="-229"/>
      <point x="479" y="-229" type="curve" smooth="yes"/>
      <point x="433" y="-229"/>
      <point x="392" y="-200"/>
      <point x="320" y="-147" type="curve"/>
      <point x="286" y="-202"/>
      <point x="231" y="-237"/>
      <point x="175" y="-237" type="curve" smooth="yes"/>
      <point x="169" y="-237"/>
      <point x="164" y="-237"/>
      <point x="158" y="-236" type="curve" smooth="yes"/>
      <point x="108" y="-230"/>
      <point x="80" y="-201"/>
      <point x="80" y="-158" type="curve" smooth="yes"/>
      <point x="80" y="-142"/>
      <point x="84" y="-125"/>
      <point x="92" y="-106" type="curve" smooth="yes"/>
      <point x="98" y="-92"/>
      <point x="117" y="-82"/>
      <point x="137" y="-82" type="curve" smooth="yes"/>
      <point x="139" y="-82"/>
      <point x="140" y="-82"/>
      <point x="142" y="-82" type="curve" smooth="yes"/>
      <point x="159" y="-84"/>
      <point x="170" y="-94"/>
      <point x="170" y="-106" type="curve" smooth="yes"/>
      <point x="170" y="-109"/>
      <point x="169" y="-111"/>
      <point x="168" y="-114" type="curve" smooth="yes"/>
      <point x="161" y="-130"/>
      <point x="159" y="-142"/>
      <point x="159" y="-151" type="curve" smooth="yes"/>
      <point x="159" y="-173"/>
      <point x="174" y="-178"/>
      <point x="182" y="-179" type="curve" smooth="yes"/>
      <point x="183" y="-179"/>
      <point x="185" y="-179"/>
      <point x="186" y="-179" type="curve" smooth="yes"/>
      <point x="208" y="-179"/>
      <point x="250" y="-164"/>
      <point x="267" y="-122" type="curve" smooth="yes"/>
      <point x="269" y="-118"/>
      <point x="270" y="-113"/>
      <point x="271" y="-109" type="curve" smooth="yes"/>
      <point x="277" y="-84"/>
      <point x="291" y="-77"/>
      <point x="305" y="-77" type="curve" smooth="yes"/>
      <point x="323" y="-77"/>
      <point x="340" y="-88"/>
      <point x="340" y="-88" type="curve" smooth="yes"/>
      <point x="387" y="-128"/>
      <point x="418" y="-160"/>
      <point x="447" y="-173" type="curve"/>
      <point x="445" y="-156"/>
      <point x="434" y="-119"/>
      <point x="434" y="-94" type="curve" smooth="yes"/>
      <point x="434" y="-79"/>
      <point x="452" y="-64"/>
    </contour>
    <component base="uni0E10.rd"/>
  </outline>
</glyph>
<glyph name="uni0E18" format="1">
  <advance width="580"/>
  <unicode hex="0E18"/>
  <outline>
    <contour>
      <point x="153" y="303" type="curve" smooth="yes"/>
      <point x="156" y="304"/>
      <point x="160" y="304"/>
      <point x="163" y="304" type="curve" smooth="yes"/>
      <point x="184" y="304"/>
      <point x="200" y="293"/>
      <point x="201" y="277" type="curve" smooth="yes"/>
      <point x="204" y="243"/>
      <point x="205" y="207"/>
      <point x="205" y="173" type="curve" smooth="yes"/>
      <point x="205" y="130"/>
      <point x="203" y="92"/>
      <point x="202" y="71" type="curve"/>
      <point x="230" y="60"/>
      <point x="267" y="54"/>
      <point x="317" y="54" type="curve" smooth="yes"/>
      <point x="354" y="54"/>
      <point x="388" y="71"/>
      <point x="411" y="106" type="curve" smooth="yes"/>
      <point x="423" y="124"/>
      <point x="430" y="146"/>
      <point x="430" y="169" type="curve" smooth="yes"/>
      <point x="430" y="227"/>
      <point x="384" y="294"/>
      <point x="249" y="328" type="curve" smooth="yes"/>
      <point x="211" y="338"/>
      <point x="179" y="350"/>
      <point x="153" y="364" type="curve" smooth="yes"/>
      <point x="94" y="396"/>
      <point x="64" y="440"/>
      <point x="64" y="483" type="curve" smooth="yes"/>
      <point x="64" y="512"/>
      <point x="77" y="540"/>
      <point x="105" y="565" type="curve" smooth="yes"/>
      <point x="146" y="602"/>
      <point x="207" y="622"/>
      <point x="278" y="622" type="curve" smooth="yes"/>
      <point x="349" y="622"/>
      <point x="430" y="602"/>
      <point x="511" y="558" type="curve" smooth="yes"/>
      <point x="521" y="553"/>
      <point x="527" y="543"/>
      <point x="527" y="534" type="curve" smooth="yes"/>
      <point x="527" y="526"/>
      <point x="523" y="518"/>
      <point x="515" y="511" type="curve" smooth="yes"/>
      <point x="504" y="502"/>
      <point x="489" y="496"/>
      <point x="474" y="496" type="curve" smooth="yes"/>
      <point x="465" y="496"/>
      <point x="456" y="498"/>
      <point x="449" y="502" type="curve" smooth="yes"/>
      <point x="376" y="542"/>
      <point x="316" y="555"/>
      <point x="270" y="555" type="curve" smooth="yes"/>
      <point x="222" y="555"/>
      <point x="189" y="540"/>
      <point x="174" y="527" type="curve" smooth="yes"/>
      <point x="164" y="518"/>
      <point x="156" y="505"/>
      <point x="156" y="490" type="curve" smooth="yes"/>
      <point x="156" y="469"/>
      <point x="171" y="444"/>
      <point x="215" y="420" type="curve" smooth="yes"/>
      <point x="234" y="410"/>
      <point x="260" y="400"/>
      <point x="291" y="392" type="curve" smooth="yes"/>
      <point x="456" y="350"/>
      <point x="523" y="263"/>
      <point x="523" y="179" type="curve" smooth="yes"/>
      <point x="523" y="146"/>
      <point x="513" y="114"/>
      <point x="494" y="85" type="curve" smooth="yes"/>
      <point x="459" y="31"/>
      <point x="388" y="-14"/>
      <point x="303" y="-14" type="curve" smooth="yes"/>
      <point x="230" y="-14"/>
      <point x="170" y="-3"/>
      <point x="124" y="22" type="curve" smooth="yes"/>
      <point x="115" y="27"/>
      <point x="109" y="35"/>
      <point x="109" y="44" type="curve" smooth="yes"/>
      <point x="109" y="45"/>
      <point x="109" y="45"/>
      <point x="109" y="46" type="curve" smooth="yes"/>
      <point x="109" y="46"/>
      <point x="112" y="101"/>
      <point x="112" y="165" type="curve" smooth="yes"/>
      <point x="112" y="197"/>
      <point x="111" y="232"/>
      <point x="109" y="263" type="curve" smooth="yes"/>
      <point x="109" y="264" type="line" smooth="yes"/>
      <point x="109" y="282"/>
      <point x="129" y="299"/>
    </contour>
  </outline>
</glyph>
<glyph name="uni0E1B" format="1">
  <advance width="725"/>
  <unicode hex="0E1B"/>
  <outline>
    <contour>
      <point x="576" y="846" type="curve" smooth="yes"/>
      <point x="578" y="846"/>
      <point x="579" y="846"/>
      <point x="581" y="846" type="curve" smooth="yes"/>
      <point x="605" y="846"/>
      <point x="624" y="832"/>
      <point x="624" y="815" type="curve" smooth="yes"/>
      <point x="624" y="814" type="line" smooth="yes"/>
      <point x="620" y="697"/>
      <point x="619" y="483"/>
      <point x="619" y="327" type="curve" smooth="yes"/>
      <point x="619" y="238"/>
      <point x="619" y="168"/>
      <point x="619" y="145" type="curve" smooth="yes"/>
      <point x="619" y="135"/>
      <point x="619" y="126"/>
      <point x="617" y="116" type="curve" smooth="yes"/>
      <point x="599" y="25"/>
      <point x="492" y="-26"/>
      <point x="363" y="-26" type="curve" smooth="yes"/>
      <point x="231" y="-26"/>
      <point x="106" y="-4"/>
      <point x="106" y="95" type="curve" smooth="yes"/>
      <point x="106" y="209"/>
      <point x="110" y="332"/>
      <point x="110" y="435" type="curve" smooth="yes"/>
      <point x="110" y="505"/>
      <point x="96" y="545"/>
      <point x="90" y="550" type="curve" smooth="yes"/>
      <point x="84" y="556"/>
      <point x="81" y="562"/>
      <point x="81" y="569" type="curve" smooth="yes"/>
      <point x="81" y="580"/>
      <point x="88" y="592"/>
      <point x="101" y="600" type="curve" smooth="yes"/>
      <point x="112" y="607"/>
      <point x="126" y="610"/>
      <point x="138" y="610" type="curve" smooth="yes"/>
      <point x="150" y="610"/>
      <point x="162" y="607"/>
      <point x="170" y="600" type="curve" smooth="yes"/>
      <point x="206" y="569"/>
      <point x="208" y="515"/>
      <point x="208" y="445" type="curve" smooth="yes"/>
      <point x="208" y="340"/>
      <point x="204" y="217"/>
      <point x="204" y="105" type="curve" smooth="yes"/>
      <point x="204" y="64"/>
      <point x="245" y="46"/>
      <point x="377" y="46" type="curve" smooth="yes"/>
      <point x="473" y="46"/>
      <point x="510" y="72"/>
      <point x="519" y="116" type="curve" smooth="yes"/>
      <point x="520" y="122"/>
      <point x="521" y="128"/>
      <point x="521" y="135" type="curve" smooth="yes"/>
      <point x="521" y="158"/>
      <point x="521" y="229"/>
      <point x="521" y="318" type="curve" smooth="yes"/>
      <point x="521" y="474"/>
      <point x="522" y="688"/>
      <point x="526" y="806" type="curve" smooth="yes"/>
      <point x="527" y="825"/>
      <point x="549" y="844"/>
    </contour>
  </outline>
</glyph>
<glyph name="uni0E1C" format="1">
  <advance width="750"/>
  <unicode hex="0E1C"/>
  <outline>
    <contour>
      <point x="621" y="609" type="curve" smooth="yes"/>
      <point x="622" y="609"/>
      <point x="622" y="609"/>
      <point x="623" y="609" type="curve" smooth="yes"/>
      <point x="645" y="609"/>
      <point x="663" y="596"/>
      <point x="663" y="580" type="curve" smooth="yes"/>
      <point x="663" y="579"/>
      <point x="663" y="577"/>
      <point x="663" y="576" type="curve" smooth="yes"/>
      <point x="656" y="529"/>
      <point x="653" y="404"/>
      <point x="653" y="360" type="curve" smooth="yes"/>
      <point x="653" y="211"/>
      <point x="658" y="36"/>
      <point x="658" y="36" type="curve" smooth="yes"/>
      <point x="658" y="36"/>
      <point x="637" y="-8"/>
      <point x="605" y="-8" type="curve" smooth="yes"/>
      <point x="595" y="-8"/>
      <point x="585" y="-4"/>
      <point x="573" y="6" type="curve" smooth="yes"/>
      <point x="539" y="34"/>
      <point x="465" y="138"/>
      <point x="394" y="223" type="curve"/>
      <point x="365" y="129"/>
      <point x="330" y="27"/>
      <point x="330" y="26" type="curve" smooth="yes"/>
      <point x="324" y="8"/>
      <point x="304" y="-14"/>
      <point x="283" y="-14" type="curve" smooth="yes"/>
      <point x="94" y="-14"/>
      <point x="64" y="185"/>
      <point x="64" y="290" type="curve" smooth="yes"/>
      <point x="64" y="332"/>
      <point x="67" y="371"/>
      <point x="74" y="405" type="curve" smooth="yes"/>
      <point x="96" y="515"/>
      <point x="158" y="614"/>
      <point x="272" y="614" type="curve" smooth="yes"/>
      <point x="316" y="614"/>
      <point x="353" y="598"/>
      <point x="376" y="571" type="curve" smooth="yes"/>
      <point x="380" y="566"/>
      <point x="382" y="561"/>
      <point x="382" y="555" type="curve" smooth="yes"/>
      <point x="382" y="543"/>
      <point x="373" y="529"/>
      <point x="358" y="521" type="curve" smooth="yes"/>
      <point x="349" y="516"/>
      <point x="338" y="514"/>
      <point x="328" y="514" type="curve" smooth="yes"/>
      <point x="314" y="514"/>
      <point x="301" y="518"/>
      <point x="294" y="527" type="curve" smooth="yes"/>
      <point x="283" y="540"/>
      <point x="270" y="544"/>
      <point x="258" y="544" type="curve" smooth="yes"/>
      <point x="242" y="544"/>
      <point x="191" y="520"/>
      <point x="168" y="405" type="curve" smooth="yes"/>
      <point x="162" y="374"/>
      <point x="158" y="339"/>
      <point x="158" y="300" type="curve" smooth="yes"/>
      <point x="158" y="209"/>
      <point x="191" y="90"/>
      <point x="258" y="61" type="curve"/>
      <point x="278" y="118"/>
      <point x="316" y="226"/>
      <point x="334" y="296" type="curve" smooth="yes"/>
      <point x="340" y="321"/>
      <point x="355" y="328"/>
      <point x="371" y="328" type="curve" smooth="yes"/>
      <point x="395" y="328"/>
      <point x="420" y="306"/>
      <point x="420" y="306" type="curve" smooth="yes"/>
      <point x="465" y="254"/>
      <point x="517" y="185"/>
      <point x="561" y="132" type="curve"/>
      <point x="560" y="190"/>
      <point x="559" y="273"/>
      <point x="559" y="340" type="curve" smooth="yes"/>
      <point x="559" y="386"/>
      <point x="560" y="519"/>
      <point x="569" y="574" type="curve" smooth="yes"/>
      <point x="572" y="592"/>
      <point x="596" y="608"/>
    </contour>
  </outline>
</glyph>
<glyph name="uni0E2A" format="1">
  <advance width="670"/>
  <unicode hex="0E2A"/>
  <outline>
    <contour>
      <point x="501" y="547" type="curve"/>
      <point x="516" y="570"/>
      <point x="528" y="597"/>
      <point x="534" y="630" type="curve" smooth="yes"/>
      <point x="537" y="648"/>
      <point x="561" y="664"/>
      <point x="586" y="664" type="curve" smooth="yes"/>
      <point x="609" y="664"/>
      <point x="626" y="650"/>
      <point x="626" y="634" type="curve" smooth="yes"/>
      <point x="626" y="633"/>
      <point x="626" y="631"/>
      <point x="626" y="630" type="curve" smooth="yes"/>
      <point x="615" y="572"/>
      <point x="588" y="525"/>
      <point x="551" y="486" type="curve"/>
      <point x="579" y="438"/>
      <point x="596" y="374"/>
      <point x="596" y="295" type="curve" smooth="yes"/>
      <point x="596" y="171"/>
      <point x="557" y="14"/>
      <point x="471" y="-3" type="curve" smooth="yes"/>
      <point x="468" y="-4"/>
      <point x="465" y="-4"/>
      <point x="462" y="-4" type="curve" smooth="yes"/>
      <point x="452" y="-4"/>
      <point x="440" y="-1"/>
      <point x="432" y="4" type="curve" smooth="yes"/>
      <point x="403" y="24"/>
      <point x="361" y="88"/>
      <point x="302" y="152" type="curve"/>
      <point x="252" y="208"/>
      <point x="220" y="231"/>
      <point x="194" y="235" type="curve"/>
      <point x="190" y="226"/>
      <point x="186" y="209"/>
      <point x="186" y="189" type="curve" smooth="yes"/>
      <point x="186" y="111"/>
      <point x="206" y="30"/>
      <point x="206" y="30" type="curve" smooth="yes"/>
      <point x="206" y="28"/>
      <point x="207" y="27"/>
      <point x="207" y="25" type="curve" smooth="yes"/>
      <point x="207" y="9"/>
      <point x="191" y="-7"/>
      <point x="168" y="-12" type="curve" smooth="yes"/>
      <point x="163" y="-13"/>
      <point x="159" y="-14"/>
      <point x="154" y="-14" type="curve" smooth="yes"/>
      <point x="134" y="-14"/>
      <point x="118" y="-4"/>
      <point x="114" y="9" type="curve"/>
      <point x="113" y="12"/>
      <point x="94" y="94"/>
      <point x="94" y="179" type="curve" smooth="yes"/>
      <point x="94" y="193"/>
      <point x="94" y="206"/>
      <point x="97" y="219" type="curve" smooth="yes"/>
      <point x="102" y="244"/>
      <point x="110" y="276"/>
      <point x="153" y="295" type="curve" smooth="yes"/>
      <point x="166" y="301"/>
      <point x="181" y="304"/>
      <point x="195" y="304" type="curve" smooth="yes"/>
      <point x="282" y="304"/>
      <point x="326" y="253"/>
      <point x="380" y="190" type="curve" smooth="yes"/>
      <point x="410" y="155"/>
      <point x="444" y="109"/>
      <point x="466" y="83" type="curve"/>
      <point x="485" y="128"/>
      <point x="504" y="197"/>
      <point x="504" y="285" type="curve" smooth="yes"/>
      <point x="504" y="344"/>
      <point x="493" y="391"/>
      <point x="477" y="428" type="curve"/>
      <point x="408" y="388"/>
      <point x="325" y="370"/>
      <point x="251" y="370" type="curve" smooth="yes"/>
      <point x="176" y="370"/>
      <point x="111" y="388"/>
      <point x="76" y="423" type="curve" smooth="yes"/>
      <point x="62" y="437"/>
      <point x="54" y="455"/>
      <point x="54" y="475" type="curve" smooth="yes"/>
      <point x="54" y="550"/>
      <point x="161" y="603"/>
      <point x="261" y="614" type="curve" smooth="yes"/>
      <point x="274" y="615"/>
      <point x="287" y="616"/>
      <point x="301" y="616" type="curve" smooth="yes"/>
      <point x="372" y="616"/>
      <point x="446" y="596"/>
    </contour>
    <contour>
      <point x="439" y="487" type="curve"/>
      <point x="397" y="533"/>
      <point x="340" y="548"/>
      <point x="288" y="548" type="curve" smooth="yes"/>
      <point x="279" y="548"/>
      <point x="270" y="548"/>
      <point x="261" y="547" type="curve" smooth="yes"/>
      <point x="185" y="539"/>
      <point x="146" y="504"/>
      <point x="146" y="485" type="curve" smooth="yes"/>
      <point x="146" y="478"/>
      <point x="150" y="472"/>
      <point x="158" y="465" type="curve" smooth="yes"/>
      <point x="177" y="450"/>
      <point x="218" y="439"/>
      <point x="266" y="439" type="curve" smooth="yes"/>
      <point x="321" y="439"/>
      <point x="387" y="453"/>
    </contour>
  </outline>
</glyph>
<glyph name="uni0E2D" format="1">
  <advance width="640"/>
  <unicode hex="0E2D"/>
  <outline>
    <contour>
      <point x="81" y="415" type="curve" smooth="yes"/>
      <point x="62" y="419"/>
      <point x="50" y="431"/>
      <point x="50" y="445" type="curve" smooth="yes"/>
      <point x="50" y="449"/>
      <point x="52" y="454"/>
      <point x="54" y="459" type="curve" smooth="yes"/>
      <point x="102" y="547"/>
      <point x="190" y="608"/>
      <point x="289" y="619" type="curve" smooth="yes"/>
      <point x="300" y="620"/>
      <point x="311" y="621"/>
      <point x="321" y="621" type="curve" smooth="yes"/>
      <point x="470" y="621"/>
      <point x="579" y="503"/>
      <point x="579" y="300" type="curve" smooth="yes"/>
      <point x="579" y="111"/>
      <point x="467" y="-1"/>
      <point x="322" y="-17" type="curve" smooth="yes"/>
      <point x="311" y="-18"/>
      <point x="300" y="-19"/>
      <point x="289" y="-19" type="curve" smooth="yes"/>
      <point x="164" y="-19"/>
      <point x="61" y="59"/>
      <point x="61" y="175" type="curve" smooth="yes"/>
      <point x="61" y="206"/>
      <point x="68" y="236"/>
      <point x="93" y="263" type="curve" smooth="yes"/>
      <point x="103" y="273"/>
      <point x="116" y="283"/>
      <point x="132" y="290" type="curve" smooth="yes"/>
      <point x="151" y="298"/>
      <point x="171" y="302"/>
      <point x="191" y="302" type="curve" smooth="yes"/>
      <point x="221" y="302"/>
      <point x="252" y="294"/>
      <point x="280" y="281" type="curve" smooth="yes"/>
      <point x="292" y="276"/>
      <point x="299" y="266"/>
      <point x="299" y="255" type="curve" smooth="yes"/>
      <point x="299" y="248"/>
      <point x="296" y="240"/>
      <point x="289" y="233" type="curve" smooth="yes"/>
      <point x="278" y="221"/>
      <point x="259" y="215"/>
      <point x="242" y="215" type="curve" smooth="yes"/>
      <point x="234" y="215"/>
      <point x="227" y="216"/>
      <point x="220" y="219" type="curve" smooth="yes"/>
      <point x="197" y="229"/>
      <point x="182" y="230"/>
      <point x="176" y="230" type="curve" smooth="yes"/>
      <point x="174" y="230"/>
      <point x="173" y="230"/>
      <point x="173" y="230" type="curve"/>
      <point x="171" y="229"/>
      <point x="159" y="214"/>
      <point x="159" y="185" type="curve" smooth="yes"/>
      <point x="159" y="97"/>
      <point x="236" y="53"/>
      <point x="305" y="53" type="curve" smooth="yes"/>
      <point x="311" y="53"/>
      <point x="316" y="53"/>
      <point x="322" y="54" type="curve" smooth="yes"/>
      <point x="386" y="61"/>
      <point x="481" y="115"/>
      <point x="481" y="290" type="curve" smooth="yes"/>
      <point x="481" y="485"/>
      <point x="376" y="549"/>
      <point x="302" y="549" type="curve" smooth="yes"/>
      <point x="297" y="549"/>
      <point x="293" y="548"/>
      <point x="289" y="548" type="curve" smooth="yes"/>
      <point x="242" y="543"/>
      <point x="185" y="512"/>
      <point x="146" y="441" type="curve" smooth="yes"/>
      <point x="138" y="425"/>
      <point x="115" y="414"/>
      <point x="93" y="414" type="curve" smooth="yes"/>
      <point x="89" y="414"/>
      <point x="85" y="414"/>
    </contour>
  </outline>
</glyph>
<glyph name="uni0E30" format="1">
  <advance width="540"/>
  <unicode hex="0E30"/>
  <outline>
    <contour>
      <point x="444" y="539" type="curve" smooth="yes"/>
      <point x="454" y="533"/>
      <point x="459" y="524"/>
      <point x="459" y="514" type="curve" smooth="yes"/>
      <point x="459" y="505"/>
      <point x="455" y="497"/>
      <point x="446" y="489" type="curve" smooth="yes"/>
      <point x="345" y="404"/>
      <point x="258" y="360"/>
      <point x="181" y="360" type="curve" smooth="yes"/>
      <point x="178" y="360"/>
      <point x="174" y="360"/>
      <point x="171" y="360" type="curve" smooth="yes"/>
      <point x="89" y="365"/>
      <point x="60" y="417"/>
      <point x="60" y="469" type="curve" smooth="yes"/>
      <point x="60" y="484"/>
      <point x="63" y="499"/>
      <point x="67" y="513" type="curve" smooth="yes"/>
      <point x="73" y="531"/>
      <point x="99" y="546"/>
      <point x="124" y="546" type="curve" smooth="yes"/>
      <point x="125" y="546"/>
      <point x="125" y="546"/>
      <point x="126" y="546" type="curve" smooth="yes"/>
      <point x="148" y="545"/>
      <point x="164" y="531"/>
      <point x="164" y="515" type="curve" smooth="yes"/>
      <point x="164" y="512"/>
      <point x="164" y="510"/>
      <point x="163" y="507" type="curve" smooth="yes"/>
      <point x="160" y="496"/>
      <point x="158" y="486"/>
      <point x="158" y="478" type="curve" smooth="yes"/>
      <point x="158" y="447"/>
      <point x="178" y="432"/>
      <point x="192" y="431" type="curve" smooth="yes"/>
      <point x="193" y="431"/>
      <point x="193" y="431"/>
      <point x="194" y="431" type="curve" smooth="yes"/>
      <point x="216" y="431"/>
      <point x="276" y="448"/>
      <point x="374" y="531" type="curve" smooth="yes"/>
      <point x="385" y="541"/>
      <point x="402" y="546"/>
      <point x="417" y="546" type="curve" smooth="yes"/>
      <point x="427" y="546"/>
      <point x="436" y="543"/>
    </contour>
    <contour>
      <point x="446" y="230" type="curve" smooth="yes"/>
      <point x="455" y="224"/>
      <point x="460" y="216"/>
      <point x="460" y="207" type="curve" smooth="yes"/>
      <point x="460" y="198"/>
      <point x="454" y="188"/>
      <point x="444" y="180" type="curve" smooth="yes"/>
      <point x="343" y="101"/>
      <point x="254" y="60"/>
      <point x="177" y="60" type="curve" smooth="yes"/>
      <point x="173" y="60"/>
      <point x="170" y="60"/>
      <point x="166" y="60" type="curve" smooth="yes"/>
      <point x="85" y="64"/>
      <point x="51" y="113"/>
      <point x="51" y="166" type="curve" smooth="yes"/>
      <point x="51" y="179"/>
      <point x="53" y="192"/>
      <point x="57" y="205" type="curve" smooth="yes"/>
      <point x="63" y="223"/>
      <point x="89" y="238"/>
      <point x="114" y="238" type="curve" smooth="yes"/>
      <point x="115" y="238"/>
      <point x="115" y="238"/>
      <point x="116" y="238" type="curve" smooth="yes"/>
      <point x="138" y="237"/>
      <point x="154" y="223"/>
      <point x="154" y="207" type="curve" smooth="yes"/>
      <point x="154" y="204"/>
      <point x="154" y="202"/>
      <point x="153" y="199" type="curve" smooth="yes"/>
      <point x="150" y="190"/>
      <point x="149" y="181"/>
      <point x="149" y="174" type="curve" smooth="yes"/>
      <point x="149" y="146"/>
      <point x="168" y="133"/>
      <point x="187" y="132" type="curve" smooth="yes"/>
      <point x="188" y="132"/>
      <point x="188" y="132"/>
      <point x="189" y="132" type="curve" smooth="yes"/>
      <point x="216" y="132"/>
      <point x="281" y="149"/>
      <point x="376" y="224" type="curve" smooth="yes"/>
      <point x="388" y="233"/>
      <point x="403" y="237"/>
      <point x="418" y="237" type="curve" smooth="yes"/>
      <point x="428" y="237"/>
      <point x="438" y="235"/>
    </contour>
  </outline>
</glyph>
<glyph name="uni0E32" format="1">
  <advance width="500"/>
  <unicode hex="0E32"/>
  <outline>
    <contour>
      <point x="52" y="399" type="curve" smooth="yes"/>
      <point x="30" y="401"/>
      <point x="15" y="414"/>
      <point x="15" y="430" type="curve" smooth="yes"/>
      <point x="15" y="433"/>
      <point x="16" y="436"/>
      <point x="17" y="439" type="curve" smooth="yes"/>
      <point x="51" y="532"/>
      <point x="149" y="609"/>
      <point x="253" y="616" type="curve" smooth="yes"/>
      <point x="258" y="616"/>
      <point x="262" y="616"/>
      <point x="267" y="616" type="curve" smooth="yes"/>
      <point x="357" y="616"/>
      <point x="410" y="557"/>
      <point x="410" y="462" type="curve" smooth="yes"/>
      <point x="410" y="454"/>
      <point x="410" y="446"/>
      <point x="409" y="438" type="curve"/>
      <point x="395" y="280"/>
      <point x="389" y="167"/>
      <point x="389" y="55" type="curve" smooth="yes"/>
      <point x="389" y="42"/>
      <point x="389" y="29"/>
      <point x="389" y="16" type="curve" smooth="yes"/>
      <point x="389" y="-3"/>
      <point x="368" y="-22"/>
      <point x="341" y="-25" type="curve" smooth="yes"/>
      <point x="338" y="-25"/>
      <point x="336" y="-25"/>
      <point x="333" y="-25" type="curve" smooth="yes"/>
      <point x="309" y="-25"/>
      <point x="291" y="-13"/>
      <point x="291" y="4" type="curve" smooth="yes"/>
      <point x="291" y="18"/>
      <point x="291" y="31"/>
      <point x="291" y="44" type="curve" smooth="yes"/>
      <point x="291" y="160"/>
      <point x="297" y="274"/>
      <point x="311" y="432" type="curve" smooth="yes"/>
      <point x="312" y="440"/>
      <point x="312" y="448"/>
      <point x="312" y="455" type="curve" smooth="yes"/>
      <point x="312" y="530"/>
      <point x="274" y="545"/>
      <point x="251" y="545" type="curve" smooth="yes"/>
      <point x="249" y="545"/>
      <point x="248" y="545"/>
      <point x="247" y="545" type="curve" smooth="yes"/>
      <point x="209" y="543"/>
      <point x="139" y="503"/>
      <point x="113" y="431" type="curve" smooth="yes"/>
      <point x="106" y="413"/>
      <point x="82" y="399"/>
      <point x="57" y="399" type="curve" smooth="yes"/>
      <point x="55" y="399"/>
      <point x="54" y="399"/>
    </contour>
  </outline>
</glyph>
<glyph name="uni0E35" format="1">
  <advance width="0"/>
  <unicode hex="0E35"/>
  <outline>
    <contour>
      <point x="-401" y="861" type="curve" smooth="yes"/>
      <point x="-434" y="861"/>
      <point x="-447" y="847"/>
      <point x="-450" y="833" type="curve" smooth="yes"/>
      <point x="-450" y="832"/>
      <point x="-450" y="830"/>
      <point x="-450" y="829" type="curve" smooth="yes"/>
      <point x="-450" y="805"/>
      <point x="-440" y="791"/>
      <point x="-382" y="776" type="curve" smooth="yes"/>
      <point x="-346" y="766"/>
      <point x="-285" y="752"/>
      <point x="-215" y="741" type="curve"/>
      <point x="-232" y="769"/>
      <point x="-286" y="861"/>
    </contour>
    <contour>
      <point x="-175" y="757" type="curve"/>
      <point x="-177" y="811"/>
      <point x="-186" y="879"/>
      <point x="-189" y="904" type="curve" smooth="yes"/>
      <point x="-189" y="905"/>
      <point x="-189" y="905"/>
      <point x="-189" y="906" type="curve" smooth="yes"/>
      <point x="-189" y="920"/>
      <point x="-170" y="935"/>
      <point x="-150" y="938" type="curve" smooth="yes"/>
      <point x="-147" y="938"/>
      <point x="-145" y="939"/>
      <point x="-142" y="939" type="curve" smooth="yes"/>
      <point x="-123" y="939"/>
      <point x="-106" y="929"/>
      <point x="-106" y="916" type="curve" smooth="yes"/>
      <point x="-106" y="877"/>
      <point x="-109" y="789"/>
      <point x="-110" y="724" type="curve" smooth="yes"/>
      <point x="-110" y="720"/>
      <point x="-110" y="691"/>
      <point x="-149" y="691" type="curve" smooth="yes"/>
      <point x="-153" y="691"/>
      <point x="-157" y="691"/>
      <point x="-162" y="692" type="curve" smooth="yes"/>
      <point x="-273" y="706"/>
      <point x="-357" y="717"/>
      <point x="-418" y="733" type="curve" smooth="yes"/>
      <point x="-480" y="750"/>
      <point x="-530" y="774"/>
      <point x="-530" y="821" type="curve" smooth="yes"/>
      <point x="-530" y="825"/>
      <point x="-529" y="829"/>
      <point x="-528" y="833" type="curve" smooth="yes"/>
      <point x="-520" y="875"/>
      <point x="-467" y="919"/>
      <point x="-389" y="919" type="curve" smooth="yes"/>
      <point x="-249" y="919"/>
      <point x="-187" y="781"/>
    </contour>
  </outline>
</glyph>
<glyph name="uni0E4D" format="1">
  <advance width="0"/>
  <unicode hex="0E4D"/>
  <outline>
    <contour>
      <point x="-160" y="866" type="curve"/>
      <point x="-165" y="865"/>
      <point x="-171" y="863"/>
      <point x="-176" y="863" type="curve" smooth="yes"/>
      <point x="-184" y="863"/>
      <point x="-199" y="857"/>
      <point x="-206" y="826" type="curve" smooth="yes"/>
      <point x="-207" y="820"/>
      <point x="-208" y="815"/>
      <point x="-208" y="809" type="curve" smooth="yes"/>
      <point x="-208" y="771"/>
      <point x="-173" y="757"/>
      <point x="-164" y="757" type="curve" smooth="yes"/>
      <point x="-147" y="757"/>
      <point x="-128" y="766"/>
      <point x="-123" y="788" type="curve" smooth="yes"/>
      <point x="-122" y="791"/>
      <point x="-122" y="793"/>
      <point x="-122" y="796" type="curve" smooth="yes"/>
      <point x="-122" y="832"/>
      <point x="-133" y="854"/>
    </contour>
    <contour>
      <point x="-150" y="914" type="curve" smooth="yes"/>
      <point x="-144" y="916"/>
      <point x="-139" y="916"/>
      <point x="-134" y="916" type="curve" smooth="yes"/>
      <point x="-129" y="916"/>
      <point x="-123" y="916"/>
      <point x="-119" y="914" type="curve" smooth="yes"/>
      <point x="-62" y="891"/>
      <point x="-48" y="847"/>
      <point x="-48" y="804" type="curve" smooth="yes"/>
      <point x="-48" y="798"/>
      <point x="-49" y="793"/>
      <point x="-50" y="788" type="curve" smooth="yes"/>
      <point x="-60" y="740"/>
      <point x="-116" y="703"/>
      <point x="-176" y="703" type="curve" smooth="yes"/>
      <point x="-235" y="703"/>
      <point x="-282" y="745"/>
      <point x="-282" y="801" type="curve" smooth="yes"/>
      <point x="-282" y="809"/>
      <point x="-281" y="818"/>
      <point x="-279" y="826" type="curve" smooth="yes"/>
      <point x="-271" y="864"/>
      <point x="-237" y="917"/>
      <point x="-164" y="917" type="curve" smooth="yes"/>
      <point x="-159" y="917"/>
      <point x="-154" y="916"/>
    </contour>
  </outline>
</glyph>
<glyph name="uni0E4F" format="1">
  <advance width="750"/>
  <unicode hex="0E4F"/>
  <outline>
    <contour>
      <point x="391" y="398" type="curve"/>
      <point x="396" y="400"/>
      <point x="401" y="401"/>
      <point x="406" y="401" type="curve" smooth="yes"/>
      <point x="411" y="401"/>
      <point x="415" y="400"/>
      <point x="419" y="399" type="curve" smooth="yes"/>
      <point x="473" y="377"/>
      <point x="487" y="335"/>
      <point x="487" y="293" type="curve" smooth="yes"/>
      <point x="487" y="244"/>
      <point x="439" y="205"/>
      <point x="382" y="199" type="curve" smooth="yes"/>
      <point x="377" y="199"/>
      <point x="373" y="199"/>
      <point x="368" y="199" type="curve" smooth="yes"/>
      <point x="314" y="199"/>
      <point x="267" y="237"/>
      <point x="267" y="292" type="curve" smooth="yes"/>
      <point x="267" y="334"/>
      <point x="291" y="394"/>
      <point x="364" y="401" type="curve" smooth="yes"/>
      <point x="368" y="401"/>
      <point x="372" y="401"/>
      <point x="376" y="401" type="curve" smooth="yes"/>
      <point x="381" y="401"/>
      <point x="387" y="400"/>
    </contour>
    <contour>
      <point x="472" y="523" type="curve"/>
      <point x="466" y="521"/>
      <point x="461" y="521"/>
      <point x="455" y="521" type="curve" smooth="yes"/>
      <point x="449" y="521"/>
      <point x="443" y="521"/>
      <point x="439" y="523" type="curve" smooth="yes"/>
      <point x="420" y="529"/>
      <point x="397" y="531"/>
      <point x="369" y="531" type="curve" smooth="yes"/>
      <point x="267" y="531"/>
      <point x="187" y="468"/>
      <point x="165" y="360" type="curve" smooth="yes"/>
      <point x="162" y="343"/>
      <point x="160" y="325"/>
      <point x="160" y="307" type="curve" smooth="yes"/>
      <point x="160" y="142"/>
      <point x="258" y="59"/>
      <point x="378" y="59" type="curve" smooth="yes"/>
      <point x="479" y="59"/>
      <point x="562" y="116"/>
      <point x="585" y="232" type="curve" smooth="yes"/>
      <point x="589" y="251"/>
      <point x="590" y="271"/>
      <point x="590" y="293" type="curve" smooth="yes"/>
      <point x="590" y="385"/>
      <point x="548" y="463"/>
      <point x="483" y="502" type="curve" smooth="yes"/>
      <point x="476" y="506"/>
      <point x="472" y="512"/>
      <point x="472" y="520" type="curve" smooth="yes"/>
      <point x="472" y="521"/>
      <point x="472" y="522"/>
    </contour>
    <contour>
      <point x="498" y="551" type="curve"/>
      <point x="504" y="553"/>
      <point x="510" y="553"/>
      <point x="516" y="553" type="curve" smooth="yes"/>
      <point x="525" y="553"/>
      <point x="533" y="552"/>
      <point x="539" y="548" type="curve" smooth="yes"/>
      <point x="626" y="497"/>
      <point x="670" y="403"/>
      <point x="670" y="301" type="curve" smooth="yes"/>
      <point x="670" y="277"/>
      <point x="667" y="254"/>
      <point x="663" y="232" type="curve" smooth="yes"/>
      <point x="636" y="100"/>
      <point x="524" y="1"/>
      <point x="366" y="1" type="curve" smooth="yes"/>
      <point x="188" y="1"/>
      <point x="80" y="122"/>
      <point x="80" y="299" type="curve" smooth="yes"/>
      <point x="80" y="320"/>
      <point x="82" y="340"/>
      <point x="86" y="360" type="curve" smooth="yes"/>
      <point x="111" y="483"/>
      <point x="220" y="589"/>
      <point x="381" y="589" type="curve" smooth="yes"/>
      <point x="415" y="589"/>
      <point x="448" y="585"/>
      <point x="479" y="575" type="curve" smooth="yes"/>
      <point x="491" y="571"/>
      <point x="498" y="563"/>
      <point x="498" y="553" type="curve" smooth="yes"/>
      <point x="498" y="552"/>
      <point x="498" y="552"/>
    </contour>
  </outline>
</glyph>
<glyph name="uni0E51" format="1">
  <advance width="720"/>
  <unicode hex="0E51"/>
  <outline>
    <contour>
      <point x="360" y="330" type="curve" smooth="yes"/>
      <point x="362" y="330"/>
      <point x="365" y="330"/>
      <point x="367" y="330" type="curve" smooth="yes"/>
      <point x="391" y="330"/>
      <point x="409" y="317"/>
      <point x="409" y="300" type="curve" smooth="yes"/>
      <point x="409" y="289"/>
      <point x="408" y="280"/>
      <point x="406" y="270" type="curve" smooth="yes"/>
      <point x="391" y="194"/>
      <point x="313" y="144"/>
      <point x="228" y="144" type="curve" smooth="yes"/>
      <point x="137" y="144"/>
      <point x="61" y="206"/>
      <point x="61" y="316" type="curve" smooth="yes"/>
      <point x="61" y="339"/>
      <point x="63" y="361"/>
      <point x="67" y="382" type="curve" smooth="yes"/>
      <point x="92" y="505"/>
      <point x="198" y="616"/>
      <point x="367" y="616" type="curve" smooth="yes"/>
      <point x="558" y="616"/>
      <point x="659" y="478"/>
      <point x="659" y="314" type="curve" smooth="yes"/>
      <point x="659" y="132"/>
      <point x="515" y="14"/>
      <point x="352" y="-33" type="curve" smooth="yes"/>
      <point x="346" y="-35"/>
      <point x="339" y="-36"/>
      <point x="333" y="-36" type="curve" smooth="yes"/>
      <point x="314" y="-36"/>
      <point x="297" y="-28"/>
      <point x="292" y="-14" type="curve" smooth="yes"/>
      <point x="291" y="-11"/>
      <point x="290" y="-9"/>
      <point x="290" y="-6" type="curve" smooth="yes"/>
      <point x="290" y="10"/>
      <point x="306" y="26"/>
      <point x="328" y="33" type="curve" smooth="yes"/>
      <point x="449" y="68"/>
      <point x="561" y="152"/>
      <point x="561" y="304" type="curve" smooth="yes"/>
      <point x="561" y="454"/>
      <point x="468" y="544"/>
      <point x="353" y="544" type="curve" smooth="yes"/>
      <point x="259" y="544"/>
      <point x="186" y="488"/>
      <point x="165" y="382" type="curve" smooth="yes"/>
      <point x="161" y="364"/>
      <point x="159" y="345"/>
      <point x="159" y="326" type="curve" smooth="yes"/>
      <point x="159" y="236"/>
      <point x="217" y="216"/>
      <point x="242" y="216" type="curve" smooth="yes"/>
      <point x="270" y="216"/>
      <point x="300" y="227"/>
      <point x="309" y="270" type="curve" smooth="yes"/>
      <point x="310" y="276"/>
      <point x="311" y="283"/>
      <point x="311" y="290" type="curve" smooth="yes"/>
      <point x="311" y="309"/>
      <point x="333" y="327"/>
    </contour>
  </outline>
</glyph>
<glyph name="uni0E52" format="1">
  <advance width="810"/>
  <unicode hex="0E52"/>
  <outline>
    <contour>
      <point x="471" y="250" type="curve" smooth="yes"/>
      <point x="467" y="232"/>
      <point x="443" y="216"/>
      <point x="418" y="216" type="curve" smooth="yes"/>
      <point x="306" y="216"/>
      <point x="249" y="302"/>
      <point x="249" y="405" type="curve" smooth="yes"/>
      <point x="249" y="416"/>
      <point x="249" y="429"/>
      <point x="252" y="442" type="curve" smooth="yes"/>
      <point x="263" y="496"/>
      <point x="307" y="604"/>
      <point x="432" y="604" type="curve" smooth="yes"/>
      <point x="514" y="604"/>
      <point x="537" y="534"/>
      <point x="538" y="492" type="curve"/>
      <point x="579" y="520"/>
      <point x="630" y="555"/>
      <point x="656" y="573" type="curve" smooth="yes"/>
      <point x="656" y="573"/>
      <point x="685" y="593"/>
      <point x="707" y="593" type="curve" smooth="yes"/>
      <point x="720" y="593"/>
      <point x="731" y="585"/>
      <point x="731" y="561" type="curve" smooth="yes"/>
      <point x="731" y="560" type="line" smooth="yes"/>
      <point x="731" y="560"/>
      <point x="726" y="194"/>
      <point x="726" y="45" type="curve" smooth="yes"/>
      <point x="726" y="36"/>
      <point x="723" y="6"/>
      <point x="675" y="6" type="curve" smooth="yes"/>
      <point x="674" y="6"/>
      <point x="672" y="6"/>
      <point x="670" y="6" type="curve" smooth="yes"/>
      <point x="575" y="10"/>
      <point x="494" y="14"/>
      <point x="402" y="14" type="curve" smooth="yes"/>
      <point x="327" y="14"/>
      <point x="245" y="12"/>
      <point x="142" y="5" type="curve" smooth="yes"/>
      <point x="140" y="5"/>
      <point x="139" y="5"/>
      <point x="138" y="5" type="curve" smooth="yes"/>
      <point x="115" y="5"/>
      <point x="99" y="19"/>
      <point x="99" y="34" type="curve" smooth="yes"/>
      <point x="99" y="34"/>
      <point x="101" y="163"/>
      <point x="101" y="314" type="curve" smooth="yes"/>
      <point x="101" y="484"/>
      <point x="99" y="683"/>
      <point x="89" y="762" type="curve" smooth="yes"/>
      <point x="89" y="763"/>
      <point x="89" y="764"/>
      <point x="89" y="765" type="curve" smooth="yes"/>
      <point x="89" y="782"/>
      <point x="107" y="799"/>
      <point x="131" y="803" type="curve" smooth="yes"/>
      <point x="134" y="804"/>
      <point x="138" y="804"/>
      <point x="141" y="804" type="curve" smooth="yes"/>
      <point x="162" y="804"/>
      <point x="179" y="794"/>
      <point x="181" y="778" type="curve" smooth="yes"/>
      <point x="191" y="694"/>
      <point x="193" y="490"/>
      <point x="193" y="318" type="curve" smooth="yes"/>
      <point x="193" y="214"/>
      <point x="192" y="122"/>
      <point x="192" y="75" type="curve"/>
      <point x="279" y="80"/>
      <point x="351" y="82"/>
      <point x="418" y="82" type="curve" smooth="yes"/>
      <point x="494" y="82"/>
      <point x="562" y="79"/>
      <point x="634" y="76" type="curve"/>
      <point x="634" y="191"/>
      <point x="637" y="378"/>
      <point x="638" y="479" type="curve"/>
      <point x="605" y="456"/>
      <point x="566" y="430"/>
      <point x="532" y="407" type="curve" smooth="yes"/>
      <point x="514" y="395"/>
      <point x="500" y="390"/>
      <point x="490" y="390" type="curve" smooth="yes"/>
      <point x="459" y="390"/>
      <point x="457" y="430"/>
      <point x="457" y="430" type="curve" smooth="yes"/>
      <point x="460" y="443"/>
      <point x="463" y="458"/>
      <point x="463" y="472" type="curve" smooth="yes"/>
      <point x="463" y="514"/>
      <point x="436" y="536"/>
      <point x="418" y="536" type="curve" smooth="yes"/>
      <point x="392" y="536"/>
      <point x="356" y="501"/>
      <point x="344" y="442" type="curve" smooth="yes"/>
      <point x="342" y="432"/>
      <point x="341" y="423"/>
      <point x="341" y="415" type="curve" smooth="yes"/>
      <point x="341" y="322"/>
      <point x="396" y="284"/>
      <point x="432" y="284" type="curve" smooth="yes"/>
      <point x="455" y="284"/>
      <point x="472" y="271"/>
      <point x="472" y="255" type="curve" smooth="yes"/>
      <point x="472" y="253"/>
      <point x="471" y="252"/>
    </contour>
  </outline>
</glyph>
<glyph name="uni0E57" format="1">
  <advance width="840"/>
  <unicode hex="0E57"/>
  <outline>
    <contour>
      <point x="541" y="-15" type="line" smooth="yes"/>
      <point x="520" y="-12"/>
      <point x="505" y="-1"/>
      <point x="505" y="15" type="curve" smooth="yes"/>
      <point x="505" y="18"/>
      <point x="506" y="21"/>
      <point x="507" y="24" type="curve" smooth="yes"/>
      <point x="508" y="26"/>
      <point x="561" y="173"/>
      <point x="561" y="323" type="curve" smooth="yes"/>
      <point x="561" y="406"/>
      <point x="542" y="494"/>
      <point x="514" y="532" type="curve"/>
      <point x="481" y="446"/>
      <point x="434" y="302"/>
      <point x="408" y="267" type="curve" smooth="yes"/>
      <point x="391" y="244"/>
      <point x="376" y="237"/>
      <point x="364" y="237" type="curve" smooth="yes"/>
      <point x="341" y="237"/>
      <point x="328" y="263"/>
      <point x="328" y="263" type="curve"/>
      <point x="311" y="296"/>
      <point x="259" y="466"/>
      <point x="228" y="543" type="curve"/>
      <point x="188" y="506"/>
      <point x="159" y="385"/>
      <point x="159" y="305" type="curve" smooth="yes"/>
      <point x="159" y="111"/>
      <point x="229" y="51"/>
      <point x="272" y="51" type="curve" smooth="yes"/>
      <point x="280" y="51"/>
      <point x="286" y="52"/>
      <point x="294" y="63" type="curve" smooth="yes"/>
      <point x="304" y="77"/>
      <point x="325" y="87"/>
      <point x="345" y="87" type="curve" smooth="yes"/>
      <point x="350" y="87"/>
      <point x="356" y="86"/>
      <point x="361" y="85" type="curve" smooth="yes"/>
      <point x="378" y="80"/>
      <point x="388" y="69"/>
      <point x="388" y="56" type="curve" smooth="yes"/>
      <point x="388" y="51"/>
      <point x="386" y="44"/>
      <point x="382" y="39" type="curve" smooth="yes"/>
      <point x="358" y="4"/>
      <point x="310" y="-21"/>
      <point x="258" y="-21" type="curve" smooth="yes"/>
      <point x="123" y="-21"/>
      <point x="61" y="117"/>
      <point x="61" y="295" type="curve" smooth="yes"/>
      <point x="61" y="328"/>
      <point x="64" y="366"/>
      <point x="72" y="403" type="curve" smooth="yes"/>
      <point x="88" y="483"/>
      <point x="134" y="616"/>
      <point x="267" y="616" type="curve" smooth="yes"/>
      <point x="284" y="616"/>
      <point x="289" y="609"/>
      <point x="295" y="600" type="curve" smooth="yes"/>
      <point x="316" y="570"/>
      <point x="351" y="436"/>
      <point x="375" y="360" type="curve"/>
      <point x="402" y="435"/>
      <point x="437" y="560"/>
      <point x="455" y="590" type="curve" smooth="yes"/>
      <point x="464" y="605"/>
      <point x="477" y="616"/>
      <point x="497" y="616" type="curve" smooth="yes"/>
      <point x="631" y="616"/>
      <point x="649" y="455"/>
      <point x="649" y="333" type="curve" smooth="yes"/>
      <point x="649" y="233"/>
      <point x="624" y="137"/>
      <point x="605" y="77" type="curve"/>
      <point x="652" y="120"/>
      <point x="716" y="238"/>
      <point x="716" y="595" type="curve" smooth="yes"/>
      <point x="716" y="614"/>
      <point x="733" y="632"/>
      <point x="760" y="635" type="curve" smooth="yes"/>
      <point x="762" y="635"/>
      <point x="765" y="635"/>
      <point x="767" y="635" type="curve" smooth="yes"/>
      <point x="791" y="635"/>
      <point x="809" y="622"/>
      <point x="809" y="605" type="curve" smooth="yes"/>
      <point x="809" y="109"/>
      <point x="662" y="25"/>
      <point x="593" y="-9" type="curve" smooth="yes"/>
      <point x="584" y="-14"/>
      <point x="574" y="-16"/>
      <point x="564" y="-16" type="curve" smooth="yes"/>
    </contour>
  </outline>
</glyph>
<glyph name="endash" format="1">
  <advance width="660"/>
  <unicode hex="2013"/>
  <outline>
    <contour>
      <point x="77" y="349" type="curve" smooth="yes"/>
      <point x="84" y="367"/>
      <point x="108" y="381"/>
      <point x="133" y="381" type="curve" smooth="yes"/>
      <point x="135" y="381"/>
      <point x="136" y="381"/>
      <point x="138" y="381" type="curve" smooth="yes"/>
      <point x="192" y="376"/>
      <point x="290" y="374"/>
      <point x="390" y="374" type="curve" smooth="yes"/>
      <point x="442" y="374"/>
      <point x="494" y="374"/>
      <point x="540" y="376" type="curve" smooth="yes"/>
      <point x="541" y="376"/>
      <point x="541" y="376"/>
      <point x="542" y="376" type="curve" smooth="yes"/>
      <point x="566" y="376"/>
      <point x="584" y="363"/>
      <point x="584" y="346" type="curve" smooth="yes"/>
      <point x="584" y="345"/>
      <point x="584" y="343"/>
      <point x="584" y="342" type="curve" smooth="yes"/>
      <point x="581" y="323"/>
      <point x="557" y="305"/>
      <point x="530" y="304" type="curve" smooth="yes"/>
      <point x="474" y="302"/>
      <point x="413" y="301"/>
      <point x="353" y="301" type="curve" smooth="yes"/>
      <point x="259" y="301"/>
      <point x="169" y="304"/>
      <point x="112" y="309" type="curve" smooth="yes"/>
      <point x="90" y="311"/>
      <point x="75" y="324"/>
      <point x="75" y="340" type="curve" smooth="yes"/>
      <point x="75" y="343"/>
      <point x="76" y="346"/>
    </contour>
  </outline>
</glyph>
<glyph name="quoteleft" format="1">
  <advance width="330"/>
  <unicode hex="2018"/>
  <outline>
    <contour>
      <point x="257" y="602" type="curve" smooth="yes"/>
      <point x="262" y="597"/>
      <point x="265" y="591"/>
      <point x="265" y="585" type="curve" smooth="yes"/>
      <point x="265" y="575"/>
      <point x="258" y="565"/>
      <point x="245" y="557" type="curve" smooth="yes"/>
      <point x="241" y="554"/>
      <point x="237" y="551"/>
      <point x="232" y="549" type="curve" smooth="yes"/>
      <point x="213" y="539"/>
      <point x="189" y="533"/>
      <point x="167" y="533" type="curve" smooth="yes"/>
      <point x="165" y="533"/>
      <point x="164" y="533"/>
      <point x="162" y="533" type="curve" smooth="yes"/>
      <point x="129" y="535"/>
      <point x="107" y="550"/>
      <point x="94" y="566" type="curve" smooth="yes"/>
      <point x="78" y="586"/>
      <point x="69" y="614"/>
      <point x="69" y="645" type="curve" smooth="yes"/>
      <point x="69" y="710"/>
      <point x="108" y="789"/>
      <point x="204" y="836" type="curve" smooth="yes"/>
      <point x="212" y="840"/>
      <point x="222" y="842"/>
      <point x="231" y="842" type="curve" smooth="yes"/>
      <point x="245" y="842"/>
      <point x="257" y="837"/>
      <point x="264" y="829" type="curve" smooth="yes"/>
      <point x="267" y="825"/>
      <point x="269" y="820"/>
      <point x="269" y="815" type="curve" smooth="yes"/>
      <point x="269" y="803"/>
      <point x="261" y="791"/>
      <point x="246" y="784" type="curve" smooth="yes"/>
      <point x="186" y="754"/>
      <point x="160" y="696"/>
      <point x="160" y="651" type="curve" smooth="yes"/>
      <point x="160" y="632"/>
      <point x="165" y="615"/>
      <point x="173" y="605" type="curve" smooth="yes"/>
      <point x="178" y="599"/>
      <point x="182" y="598"/>
      <point x="182" y="598" type="curve"/>
      <point x="182" y="598"/>
      <point x="186" y="598"/>
      <point x="195" y="603" type="curve" smooth="yes"/>
      <point x="205" y="609"/>
      <point x="217" y="612"/>
      <point x="228" y="612" type="curve" smooth="yes"/>
      <point x="240" y="612"/>
      <point x="250" y="609"/>
    </contour>
  </outline>
</glyph>
<glyph name="quoteright" format="1">
  <advance width="330"/>
  <unicode hex="2019"/>
  <outline>
    <contour>
      <point x="73" y="778" type="curve" smooth="yes"/>
      <point x="68" y="783"/>
      <point x="65" y="789"/>
      <point x="65" y="795" type="curve" smooth="yes"/>
      <point x="65" y="805"/>
      <point x="72" y="815"/>
      <point x="85" y="823" type="curve" smooth="yes"/>
      <point x="89" y="826"/>
      <point x="93" y="829"/>
      <point x="98" y="831" type="curve" smooth="yes"/>
      <point x="117" y="841"/>
      <point x="141" y="847"/>
      <point x="163" y="847" type="curve" smooth="yes"/>
      <point x="165" y="847"/>
      <point x="166" y="847"/>
      <point x="168" y="847" type="curve" smooth="yes"/>
      <point x="201" y="845"/>
      <point x="223" y="830"/>
      <point x="236" y="814" type="curve" smooth="yes"/>
      <point x="252" y="794"/>
      <point x="261" y="766"/>
      <point x="261" y="735" type="curve" smooth="yes"/>
      <point x="261" y="670"/>
      <point x="222" y="591"/>
      <point x="126" y="544" type="curve" smooth="yes"/>
      <point x="118" y="540"/>
      <point x="108" y="538"/>
      <point x="99" y="538" type="curve" smooth="yes"/>
      <point x="85" y="538"/>
      <point x="73" y="543"/>
      <point x="66" y="551" type="curve" smooth="yes"/>
      <point x="63" y="555"/>
      <point x="61" y="560"/>
      <point x="61" y="565" type="curve" smooth="yes"/>
      <point x="61" y="577"/>
      <point x="69" y="589"/>
      <point x="84" y="596" type="curve" smooth="yes"/>
      <point x="144" y="626"/>
      <point x="170" y="684"/>
      <point x="170" y="729" type="curve" smooth="yes"/>
      <point x="170" y="748"/>
      <point x="165" y="765"/>
      <point x="157" y="775" type="curve" smooth="yes"/>
      <point x="152" y="781"/>
      <point x="148" y="782"/>
      <point x="148" y="782" type="curve"/>
      <point x="148" y="782"/>
      <point x="144" y="782"/>
      <point x="135" y="777" type="curve" smooth="yes"/>
      <point x="125" y="771"/>
      <point x="113" y="768"/>
      <point x="102" y="768" type="curve" smooth="yes"/>
      <point x="90" y="768"/>
      <point x="80" y="771"/>
    </contour>
  </outline>
</glyph>
<glyph name="uni25CC" format="1">
  <advance width="720"/>
  <unicode hex="25CC"/>
  <outline>
    <contour>
      <point x="387" y="31" type="curve" smooth="yes"/>
      <point x="388" y="30"/>
      <point x="395" y="24"/>
      <point x="395" y="13" type="curve" smooth="yes"/>
      <point x="395" y="7" type="line" smooth="yes"/>
      <point x="393" y="-4"/>
      <point x="379" y="-20"/>
      <point x="356" y="-20" type="curve" smooth="yes"/>
      <point x="335" y="-20"/>
      <point x="325" y="-6"/>
      <point x="325" y="7" type="curve" smooth="yes"/>
      <point x="325" y="17"/>
      <point x="334" y="40"/>
      <point x="364" y="40" type="curve" smooth="yes"/>
      <point x="366" y="40"/>
      <point x="369" y="39"/>
      <point x="371" y="39" type="curve" smooth="yes"/>
      <point x="378" y="37" type="line" smooth="yes"/>
      <point x="382" y="36"/>
      <point x="385" y="33"/>
    </contour>
    <contour>
      <point x="387" y="611" type="curve" smooth="yes"/>
      <point x="388" y="610"/>
      <point x="395" y="604"/>
      <point x="395" y="593" type="curve" smooth="yes"/>
      <point x="395" y="587" type="line" smooth="yes"/>
      <point x="393" y="576"/>
      <point x="379" y="560"/>
      <point x="356" y="560" type="curve" smooth="yes"/>
      <point x="335" y="560"/>
      <point x="325" y="574"/>
      <point x="325" y="587" type="curve" smooth="yes"/>
      <point x="325" y="597"/>
      <point x="334" y="620"/>
      <point x="364" y="620" type="curve" smooth="yes"/>
      <point x="366" y="620"/>
      <point x="369" y="619"/>
      <point x="371" y="619" type="curve" smooth="yes"/>
      <point x="378" y="617" type="line" smooth="yes"/>
      <point x="382" y="616"/>
      <point x="385" y="613"/>
    </contour>
    <contour>
      <point x="629" y="327" type="curve" smooth="yes"/>
      <point x="630" y="328"/>
      <point x="636" y="335"/>
      <point x="647" y="335" type="curve" smooth="yes"/>
      <point x="653" y="335" type="line" smooth="yes"/>
      <point x="664" y="333"/>
      <point x="680" y="319"/>
      <point x="680" y="296" type="curve" smooth="yes"/>
      <point x="680" y="275"/>
      <point x="666" y="265"/>
      <point x="653" y="265" type="curve" smooth="yes"/>
      <point x="643" y="265"/>
      <point x="620" y="274"/>
      <point x="620" y="304" type="curve" smooth="yes"/>
      <point x="620" y="306"/>
      <point x="621" y="309"/>
      <point x="621" y="311" type="curve" smooth="yes"/>
      <point x="623" y="318" type="line" smooth="yes"/>
      <point x="624" y="322"/>
      <point x="627" y="325"/>
    </contour>
    <contour>
      <point x="49" y="327" type="curve" smooth="yes"/>
      <point x="50" y="328"/>
      <point x="56" y="335"/>
      <point x="67" y="335" type="curve" smooth="yes"/>
      <point x="73" y="335" type="line" smooth="yes"/>
      <point x="84" y="333"/>
      <point x="100" y="319"/>
      <point x="100" y="296" type="curve" smooth="yes"/>
      <point x="100" y="275"/>
      <point x="86" y="265"/>
      <point x="73" y="265" type="curve" smooth="yes"/>
      <point x="63" y="265"/>
      <point x="40" y="274"/>
      <point x="40" y="304" type="curve" smooth="yes"/>
      <point x="40" y="306"/>
      <point x="41" y="309"/>
      <point x="41" y="311" type="curve" smooth="yes"/>
      <point x="43" y="318" type="line" smooth="yes"/>
      <point x="44" y="322"/>
      <point x="47" y="325"/>
    </contour>
    <contour>
      <point x="518" y="81" type="curve" smooth="yes"/>
      <point x="519" y="81"/>
      <point x="528" y="79"/>
      <point x="534" y="69" type="curve" smooth="yes"/>
      <point x="537" y="64" type="line" smooth="yes"/>
      <point x="538" y="62"/>
      <point x="538" y="58"/>
      <point x="538" y="55" type="curve" smooth="yes"/>
      <point x="538" y="44"/>
      <point x="533" y="30"/>
      <point x="517" y="21" type="curve" smooth="yes"/>
      <point x="511" y="18"/>
      <point x="504" y="16"/>
      <point x="499" y="16" type="curve" smooth="yes"/>
      <point x="488" y="16"/>
      <point x="480" y="22"/>
      <point x="476" y="29" type="curve" smooth="yes"/>
      <point x="474" y="32"/>
      <point x="472" y="39"/>
      <point x="472" y="45" type="curve" smooth="yes"/>
      <point x="472" y="55"/>
      <point x="477" y="68"/>
      <point x="493" y="77" type="curve" smooth="yes"/>
      <point x="495" y="78"/>
      <point x="498" y="78"/>
      <point x="500" y="79" type="curve" smooth="yes"/>
      <point x="507" y="81" type="line" smooth="yes"/>
      <point x="509" y="81"/>
      <point x="511" y="82"/>
      <point x="513" y="82" type="curve" smooth="yes"/>
      <point x="515" y="82"/>
      <point x="516" y="81"/>
    </contour>
    <contour>
      <point x="228" y="583" type="curve" smooth="yes"/>
      <point x="229" y="583"/>
      <point x="238" y="581"/>
      <point x="244" y="571" type="curve" smooth="yes"/>
      <point x="247" y="566" type="line" smooth="yes"/>
      <point x="248" y="564"/>
      <point x="248" y="560"/>
      <point x="248" y="557" type="curve" smooth="yes"/>
      <point x="248" y="546"/>
      <point x="243" y="532"/>
      <point x="227" y="523" type="curve" smooth="yes"/>
      <point x="221" y="520"/>
      <point x="214" y="518"/>
      <point x="209" y="518" type="curve" smooth="yes"/>
      <point x="198" y="518"/>
      <point x="190" y="524"/>
      <point x="186" y="531" type="curve" smooth="yes"/>
      <point x="184" y="534"/>
      <point x="182" y="541"/>
      <point x="182" y="547" type="curve" smooth="yes"/>
      <point x="182" y="557"/>
      <point x="187" y="570"/>
      <point x="203" y="579" type="curve" smooth="yes"/>
      <point x="205" y="580"/>
      <point x="208" y="581"/>
      <point x="210" y="582" type="curve" smooth="yes"/>
      <point x="217" y="584" type="line" smooth="yes"/>
      <point x="218" y="584"/>
      <point x="219" y="584"/>
      <point x="220" y="584" type="curve" smooth="yes"/>
      <point x="223" y="584"/>
      <point x="226" y="584"/>
    </contour>
    <contour>
      <point x="579" y="458" type="curve" smooth="yes"/>
      <point x="579" y="459"/>
      <point x="581" y="468"/>
      <point x="591" y="474" type="curve" smooth="yes"/>
      <point x="596" y="477" type="line" smooth="yes"/>
      <point x="598" y="478"/>
      <point x="602" y="478"/>
      <point x="605" y="478" type="curve" smooth="yes"/>
      <point x="616" y="478"/>
      <point x="630" y="473"/>
      <point x="639" y="457" type="curve" smooth="yes"/>
      <point x="642" y="451"/>
      <point x="644" y="444"/>
      <point x="644" y="439" type="curve" smooth="yes"/>
      <point x="644" y="428"/>
      <point x="638" y="420"/>
      <point x="631" y="416" type="curve" smooth="yes"/>
      <point x="628" y="414"/>
      <point x="621" y="412"/>
      <point x="615" y="412" type="curve" smooth="yes"/>
      <point x="605" y="412"/>
      <point x="592" y="417"/>
      <point x="583" y="433" type="curve" smooth="yes"/>
      <point x="582" y="435"/>
      <point x="582" y="438"/>
      <point x="581" y="440" type="curve" smooth="yes"/>
      <point x="579" y="447" type="line" smooth="yes"/>
      <point x="579" y="449"/>
      <point x="578" y="451"/>
      <point x="578" y="453" type="curve" smooth="yes"/>
      <point x="578" y="455"/>
      <point x="579" y="456"/>
    </contour>
    <contour>
      <point x="77" y="168" type="curve" smooth="yes"/>
      <point x="77" y="169"/>
      <point x="79" y="178"/>
      <point x="89" y="184" type="curve" smooth="yes"/>
      <point x="94" y="187" type="line" smooth="yes"/>
      <point x="96" y="188"/>
      <point x="100" y="188"/>
      <point x="103" y="188" type="curve" smooth="yes"/>
      <point x="114" y="188"/>
      <point x="128" y="183"/>
      <point x="137" y="167" type="curve" smooth="yes"/>
      <point x="140" y="161"/>
      <point x="142" y="154"/>
      <point x="142" y="149" type="curve" smooth="yes"/>
      <point x="142" y="138"/>
      <point x="136" y="130"/>
      <point x="129" y="126" type="curve" smooth="yes"/>
      <point x="126" y="124"/>
      <point x="119" y="122"/>
      <point x="113" y="122" type="curve" smooth="yes"/>
      <point x="103" y="122"/>
      <point x="90" y="127"/>
      <point x="81" y="143" type="curve" smooth="yes"/>
      <point x="80" y="145"/>
      <point x="79" y="148"/>
      <point x="78" y="150" type="curve" smooth="yes"/>
      <point x="76" y="157" type="line" smooth="yes"/>
      <point x="76" y="158"/>
      <point x="76" y="159"/>
      <point x="76" y="160" type="curve" smooth="yes"/>
      <point x="76" y="163"/>
      <point x="76" y="166"/>
    </contour>
    <contour>
      <point x="249" y="54" type="curve" smooth="yes"/>
      <point x="249" y="53"/>
      <point x="250" y="50"/>
      <point x="250" y="46" type="curve" smooth="yes"/>
      <point x="250" y="43"/>
      <point x="250" y="38"/>
      <point x="247" y="34" type="curve" smooth="yes"/>
      <point x="244" y="29" type="line" smooth="yes"/>
      <point x="240" y="23"/>
      <point x="230" y="19"/>
      <point x="219" y="19" type="curve" smooth="yes"/>
      <point x="212" y="19"/>
      <point x="205" y="20"/>
      <point x="197" y="25" type="curve" smooth="yes"/>
      <point x="185" y="32"/>
      <point x="180" y="43"/>
      <point x="180" y="52" type="curve" smooth="yes"/>
      <point x="180" y="57"/>
      <point x="181" y="60"/>
      <point x="183" y="64" type="curve" smooth="yes"/>
      <point x="186" y="70"/>
      <point x="196" y="79"/>
      <point x="211" y="79" type="curve" smooth="yes"/>
      <point x="217" y="79"/>
      <point x="225" y="78"/>
      <point x="233" y="73" type="curve" smooth="yes"/>
      <point x="235" y="72"/>
      <point x="237" y="69"/>
      <point x="239" y="68" type="curve" smooth="yes"/>
      <point x="244" y="63" type="line" smooth="yes"/>
      <point x="247" y="60"/>
      <point x="248" y="57"/>
    </contour>
    <contour>
      <point x="539" y="556" type="curve" smooth="yes"/>
      <point x="539" y="555"/>
      <point x="540" y="552"/>
      <point x="540" y="548" type="curve" smooth="yes"/>
      <point x="540" y="545"/>
      <point x="540" y="540"/>
      <point x="537" y="536" type="curve" smooth="yes"/>
      <point x="534" y="531" type="line" smooth="yes"/>
      <point x="530" y="525"/>
      <point x="520" y="521"/>
      <point x="509" y="521" type="curve" smooth="yes"/>
      <point x="502" y="521"/>
      <point x="495" y="522"/>
      <point x="487" y="527" type="curve" smooth="yes"/>
      <point x="475" y="534"/>
      <point x="470" y="545"/>
      <point x="470" y="554" type="curve" smooth="yes"/>
      <point x="470" y="559"/>
      <point x="471" y="562"/>
      <point x="473" y="566" type="curve" smooth="yes"/>
      <point x="476" y="572"/>
      <point x="486" y="581"/>
      <point x="501" y="581" type="curve" smooth="yes"/>
      <point x="507" y="581"/>
      <point x="515" y="580"/>
      <point x="523" y="575" type="curve" smooth="yes"/>
      <point x="525" y="574"/>
      <point x="527" y="572"/>
      <point x="529" y="571" type="curve" smooth="yes"/>
      <point x="534" y="566" type="line" smooth="yes"/>
      <point x="537" y="563"/>
      <point x="538" y="559"/>
    </contour>
    <contour>
      <point x="606" y="189" type="curve" smooth="yes"/>
      <point x="607" y="189"/>
      <point x="610" y="190"/>
      <point x="614" y="190" type="curve" smooth="yes"/>
      <point x="617" y="190"/>
      <point x="622" y="190"/>
      <point x="626" y="187" type="curve" smooth="yes"/>
      <point x="631" y="184" type="line" smooth="yes"/>
      <point x="637" y="180"/>
      <point x="641" y="170"/>
      <point x="641" y="159" type="curve" smooth="yes"/>
      <point x="641" y="152"/>
      <point x="640" y="145"/>
      <point x="635" y="137" type="curve" smooth="yes"/>
      <point x="628" y="125"/>
      <point x="617" y="120"/>
      <point x="608" y="120" type="curve" smooth="yes"/>
      <point x="603" y="120"/>
      <point x="600" y="121"/>
      <point x="596" y="123" type="curve" smooth="yes"/>
      <point x="590" y="126"/>
      <point x="581" y="136"/>
      <point x="581" y="151" type="curve" smooth="yes"/>
      <point x="581" y="157"/>
      <point x="582" y="165"/>
      <point x="587" y="173" type="curve" smooth="yes"/>
      <point x="588" y="175"/>
      <point x="591" y="177"/>
      <point x="592" y="179" type="curve" smooth="yes"/>
      <point x="597" y="184" type="line" smooth="yes"/>
      <point x="600" y="187"/>
      <point x="603" y="188"/>
    </contour>
    <contour>
      <point x="104" y="479" type="curve" smooth="yes"/>
      <point x="105" y="479"/>
      <point x="108" y="480"/>
      <point x="112" y="480" type="curve" smooth="yes"/>
      <point x="115" y="480"/>
      <point x="120" y="480"/>
      <point x="124" y="477" type="curve" smooth="yes"/>
      <point x="129" y="474" type="line" smooth="yes"/>
      <point x="135" y="470"/>
      <point x="139" y="460"/>
      <point x="139" y="449" type="curve" smooth="yes"/>
      <point x="139" y="442"/>
      <point x="138" y="435"/>
      <point x="133" y="427" type="curve" smooth="yes"/>
      <point x="126" y="415"/>
      <point x="115" y="410"/>
      <point x="106" y="410" type="curve" smooth="yes"/>
      <point x="101" y="410"/>
      <point x="98" y="411"/>
      <point x="94" y="413" type="curve" smooth="yes"/>
      <point x="88" y="416"/>
      <point x="79" y="426"/>
      <point x="79" y="441" type="curve" smooth="yes"/>
      <point x="79" y="447"/>
      <point x="80" y="455"/>
      <point x="85" y="463" type="curve" smooth="yes"/>
      <point x="86" y="465"/>
      <point x="88" y="467"/>
      <point x="89" y="469" type="curve" smooth="yes"/>
      <point x="94" y="474" type="line" smooth="yes"/>
      <point x="97" y="477"/>
      <point x="101" y="478"/>
    </contour>
  </outline>
</glyph>
<glyph name="uni0E0D.rd" format="1">
  <advance width="965"/>
  <unicode hex="F89A"/>
  <outline>
    <contour>
      <point x="820" y="605" type="curve" smooth="yes"/>
      <point x="822" y="605"/>
      <point x="825" y="605"/>
      <point x="827" y="605" type="curve" smooth="yes"/>
      <point x="851" y="605"/>
      <point x="869" y="592"/>
      <point x="869" y="575" type="curve" smooth="yes"/>
      <point x="869" y="405"/>
      <point x="878" y="301"/>
      <point x="879" y="135" type="curve"/>
      <point x="879" y="126"/>
      <point x="879" y="118"/>
      <point x="877" y="110" type="curve" smooth="yes"/>
      <point x="860" y="25"/>
      <point x="756" y="-21"/>
      <point x="663" y="-21" type="curve" smooth="yes"/>
      <point x="565" y="-21"/>
      <point x="471" y="35"/>
      <point x="471" y="124" type="curve" smooth="yes"/>
      <point x="471" y="125" type="line"/>
      <point x="472" y="245"/>
      <point x="476" y="412"/>
      <point x="476" y="460" type="curve" smooth="yes"/>
      <point x="476" y="525"/>
      <point x="429" y="544"/>
      <point x="375" y="544" type="curve" smooth="yes"/>
      <point x="312" y="544"/>
      <point x="235" y="534"/>
      <point x="190" y="520" type="curve"/>
      <point x="196" y="497"/>
      <point x="199" y="471"/>
      <point x="199" y="445" type="curve" smooth="yes"/>
      <point x="199" y="339"/>
      <point x="179" y="217"/>
      <point x="179" y="125" type="curve" smooth="yes"/>
      <point x="179" y="66"/>
      <point x="196" y="53"/>
      <point x="228" y="53" type="curve" smooth="yes"/>
      <point x="229" y="53"/>
      <point x="229" y="53"/>
      <point x="230" y="53" type="curve" smooth="yes"/>
      <point x="233" y="53"/>
      <point x="235" y="54"/>
      <point x="258" y="62" type="curve" smooth="yes"/>
      <point x="265" y="65"/>
      <point x="273" y="66"/>
      <point x="281" y="66" type="curve" smooth="yes"/>
      <point x="299" y="66"/>
      <point x="316" y="59"/>
      <point x="322" y="47" type="curve" smooth="yes"/>
      <point x="324" y="43"/>
      <point x="325" y="40"/>
      <point x="325" y="36" type="curve" smooth="yes"/>
      <point x="325" y="21"/>
      <point x="312" y="5"/>
      <point x="292" y="-2" type="curve" smooth="yes"/>
      <point x="269" y="-10"/>
      <point x="244" y="-19"/>
      <point x="214" y="-19" type="curve" smooth="yes"/>
      <point x="104" y="-19"/>
      <point x="81" y="52"/>
      <point x="81" y="115" type="curve" smooth="yes"/>
      <point x="81" y="217"/>
      <point x="101" y="339"/>
      <point x="101" y="435" type="curve" smooth="yes"/>
      <point x="101" y="471"/>
      <point x="89" y="510"/>
      <point x="86" y="514" type="curve" smooth="yes"/>
      <point x="82" y="519"/>
      <point x="80" y="524"/>
      <point x="80" y="529" type="curve" smooth="yes"/>
      <point x="80" y="542"/>
      <point x="91" y="556"/>
      <point x="108" y="564" type="curve" smooth="yes"/>
      <point x="175" y="595"/>
      <point x="287" y="616"/>
      <point x="389" y="616" type="curve" smooth="yes"/>
      <point x="487" y="616"/>
      <point x="574" y="569"/>
      <point x="574" y="470" type="curve" smooth="yes"/>
      <point x="574" y="420"/>
      <point x="570" y="255"/>
      <point x="569" y="135" type="curve"/>
      <point x="569" y="134" type="line" smooth="yes"/>
      <point x="569" y="83"/>
      <point x="626" y="51"/>
      <point x="677" y="51" type="curve" smooth="yes"/>
      <point x="731" y="51"/>
      <point x="771" y="71"/>
      <point x="779" y="110" type="curve" smooth="yes"/>
      <point x="780" y="114"/>
      <point x="781" y="120"/>
      <point x="781" y="125" type="curve"/>
      <point x="780" y="289"/>
      <point x="771" y="393"/>
      <point x="771" y="565" type="curve" smooth="yes"/>
      <point x="771" y="584"/>
      <point x="793" y="602"/>
    </contour>
  </outline>
</glyph>
